<?xml version="1.0" encoding="utf-8"?>
<!-- Generator: Adobe Illustrator 27.5.0, SVG Export Plug-In . SVG Version: 6.00 Build 0)  -->
<svg version="1.1" xmlns="http://www.w3.org/2000/svg" xmlns:xlink="http://www.w3.org/1999/xlink" x="0px" y="0px"
	 viewBox="0 0 1100 800" style="enable-background:new 0 0 1100 800;" xml:space="preserve">
<g id="Background">
	<rect style="fill:#FFFFFF;" width="1100" height="800"/>
</g>
<g id="Shadow">
	<g>
		<path style="fill:#F1F2F2;" d="M521.964,644.118c-28.193,0.084-56.385,0.762-84.528,3.892c-10.611,1.18-21,3.776-31.635,4.823
			c-21.244,2.092-42.107,5.993-63.426,7.793c-17.168,1.449-34.408,2.305-51.526,4.143c-16.049,1.724-33.816,1.326-49.742-1.522
			c-11.79-2.109-23.633-3.296-35.225-6.682c-12.967-3.789-27.055-6.498-40.565-6.4c-19.266,0.139-38.028,0.155-56.466,6.845
			c-6.472,2.348-14.395,6.209-19.31,11.137c-11.251,11.282-12.774,39.432-1.54,51.133c18.921,19.693,59.305,27.42,85.827,27.785
			c29.063,0.4,57.296-1.758,86.401-3.026c27.045-1.179,54.023-2.856,81.113-2.797c55.328,0.121,110.664,0,165.893-3.696
			c51.888-3.472,103.907-2.28,155.909-2.28c53.326,0,106.291,0.419,159.233,7.506c23.067,3.088,46.568,4.169,69.75,6.332
			c20.762,1.938,40.714-0.038,61.394-1.829c17.365-1.504,34.616-5.964,50.391-13.503c12.487-5.968,34.749-24.507,38.579-38.752
			c10.736-39.935-151.3-38.975-176.179-38.885c-27.831,0.101-55.884,1.016-83.693-0.045c-11.698-0.446-23.224-2.733-34.641-5.238
			c-11.372-2.495-22.83-1.861-34.362-2.91c-48.092-4.374-96.291-3.734-144.536-3.734
			C553.379,644.209,537.671,644.071,521.964,644.118z"/>
	</g>
</g>
<g id="Object">
	<g>
		<g>
			<g>
				<g>
					<rect x="369.167" y="119" style="fill:#587BC9;" width="421.192" height="277.99"/>
				</g>
				<g>
					<rect x="359.04" y="394.081" style="fill:#D1D2D3;" width="441.446" height="18.538"/>
				</g>
			</g>
			<g>
				<g>
					<g>
						<g>
							<polygon style="fill:#202B38;" points="392.172,646.37 391.531,652.698 403.029,660.589 409.739,655.042 404.311,647.933 
								392.814,640.041 							"/>
						</g>
						<g>
							<polygon style="fill:#3B455A;" points="392.459,452.881 390.512,472.101 407.754,538.136 391.744,644.249 403.529,648.309 
								434.604,544.711 439.536,514.573 439.356,450.771 							"/>
						</g>
					</g>
					<g>
						<g>
							<polygon style="fill:#3B455A;" points="483.099,474.302 458.311,652.11 447.043,652.11 445.016,538.136 424.508,458.138 
															"/>
						</g>
						<g>
							<polygon style="fill:#202B38;" points="459.293,650.704 465.385,657.091 459.293,663.478 447.108,657.091 447.108,650.704 
															"/>
						</g>
					</g>
					<g>
						<path style="fill:#7DB5DB;" d="M454.724,335.847c-8.966-7.422-30.582-3.155-41.954-3.155
							c-2.37,24.954-6.944,49.876-12.543,74.283c-4.838,21.091-14.06,41.653-18.165,62.715
							c-3.661,18.784-11.639,32.289-26.639,45.155c-2.337,2.005-5.029,4.607-4.333,7.607c0.42,1.809,1.991,3.094,3.522,4.144
							c15.124,10.373,34.566,11.453,52.903,11.763c13.923,0.235,27.851,0.227,41.773-0.025c18.139-0.328,38.32-2.461,53.786-12.954
							c0.977-0.663,2.019-1.518,2.093-2.695c0.063-1.01-0.613-1.895-1.206-2.714c-10.803-14.927-9.553-39.614-11.659-57.09
							c-2.377-19.723-4.763-39.503-9.471-58.803c-3.054-12.52-7.084-24.8-12.032-36.699c-3.767-9.059-8.262-23.895-15.339-30.868
							C455.226,336.281,454.98,336.059,454.724,335.847z"/>
					</g>
					<g>
						<g>
							<path style="fill:#3B455A;" d="M428.191,301.792c0.871-4.923,3.763-9.458,7.859-12.324c4.985,1.86,8.952,6.243,10.308,11.388
								c1.356,5.145,0.064,10.914-3.356,14.99c-1.673-7.193-8.045-13.051-15.353-14.114L428.191,301.792z"/>
						</g>
						<g>
							<path style="fill:#EAC1A4;" d="M436.074,338.031c5.378-2.531,8.798-8.219,9.78-14.081c0.982-5.862-0.176-11.887-1.988-17.547
								c-6.029-18.837-29.715-12.536-34.704,3.934C404.815,324.69,420.436,345.388,436.074,338.031z"/>
						</g>
						<g>
							<path style="fill:#3B455A;" d="M429.491,469.654c3.42-2.6,3.023-7.713,3.908-11.917c0.885-4.204,6.183-8.384,8.977-5.121
								c5.941-2.443,9.064-9.32,9.045-15.744c-0.019-6.423-2.548-12.54-5.034-18.462c-8.851-21.078-19.028-41.219-19.155-64.52
								c-0.043-7.872,1.111-15.696,2.263-23.484c1.024-6.928,1.88-13.906,3.076-20.806c0.793-4.574,3.987-8.643,4.355-12.988
								c0.258-3.039-1.312-6.02-3.551-8.092c-3.445-3.188-7.231-4.518-11.785-4.068c-15.984,1.582-26.805,12.486-29.409,28.606
								c-2.202,13.629,1.325,27.434,3.864,41.004c3.818,20.406,2.529,44.697-7.443,63.132c-4.064,7.512-8.579,15.103-9.563,23.587
								c-0.984,8.484,2.722,18.23,10.733,21.191c3.129,1.157,6.685,1.221,9.505,3.005c2.963,1.874,3.633,5.635,1.494,8.291
								c4.227,5.63,7.555,0.739,11.811-0.961C417.774,470.235,425.116,472.98,429.491,469.654z"/>
						</g>
					</g>
				</g>
				<g>
					<g>
						<polygon style="fill:#7DB5DB;" points="440.529,334.931 495.149,331.027 522.683,300.032 536.348,308.179 506.165,350.548 
							447.206,362.911 						"/>
					</g>
					<g>
						<polygon style="fill:#EAC1A4;" points="526.052,302.04 528.859,292.3 532.33,292.3 533.414,289.468 538.837,289.468 
							543.825,296.854 533.88,306.708 						"/>
					</g>
				</g>
				<g>
					<polygon style="fill:#FFFFFF;" points="528.859,292.3 526.052,276.9 531.028,274.948 534.938,292.3 					"/>
				</g>
			</g>
			<g>
				<g>
					<g>
						<g>
							<g>
								<path style="fill:#3C3C3C;" d="M716.606,643.417l11.402-10.531c3.308-1.674,6.808-2.843,9.643-2.807
									c2.059,0.026,3.768,0.687,4.799,2.25c0.99,1.501,1.191,3.477,0.517,5.078c-0.247,0.585-0.597,1.11-0.991,1.604l0.001,0
									c0,0-0.005,0.005-0.005,0.006c-0.34,0.425-0.711,0.828-1.081,1.226c-0.236,0.253-0.495,0.525-0.771,0.808
									c-2.359,2.557-6.313,6.722-7.882,7.664c-2.302,1.381-7.367,5.065-13.352,0.921c0.022-0.02,0.047-0.039,0.07-0.059
									C716.777,648.102,716.137,645.681,716.606,643.417z"/>
							</g>
							<g>
								<path style="fill:#E8C8BA;" d="M725.555,551.7l0.921,13.216l4.517,64.341l-4.517,7.485c0,0-0.921,5.985,5.985,5.525
									c2.055-0.137,9.331-9.388,9.331-9.388l-1.052-4.24l5.12-48.311l-0.047-14.032l2.449-15.58L725.555,551.7z"/>
							</g>
						</g>
						<g>
							<g>
								<path style="fill:#3C3C3C;" d="M797.834,627.079c2.122-0.668,4.099-0.565,5.684,0.691c1.522,1.207,2.395,3.168,2.242,5.039
									c-0.104,1.276-0.643,2.457-1.176,3.61c-2.753,5.968-10.476,19.461-19.336,16.988c-3.723-1.04-5.133-4.841-4.377-8.199
									C782.01,640.149,790.736,629.311,797.834,627.079z"/>
							</g>
						</g>
						<g>
							<path style="fill:#E8C8BA;" d="M753.174,543.982l1.543,19.03l37.356,67.26c0,0-5.37,9.381-1.964,10.196
								c3.406,0.815,13.393-2.026,13.414-12.619c-3.928-12.828-19.366-56.39-19.366-56.39l-7.229-11.241l0.106-21.124
								L753.174,543.982z"/>
						</g>
						<g>
							<path style="fill:#D7E8F4;" d="M795.38,480.28c0.295-5.61-1.5-20.247-3.343-25.492c-6.72-19.124-8.016-28.549-8.016-44.116
								s6.906-64.92,6.906-64.92l-23.993-14.402l-28.761,0.807l-15.971,5.267c0,0-3.381,62.095-4.341,82.108
								c-0.685,14.282-1.677,26.651-2.982,43.2c0,0-3.661,37.745,1.995,78.207c0,0,1.263,13.436,1.829,14.613
								c0.075,0.4,0.117,0.614,0.117,0.614s0.228,0,0.23,0.001l63.957-0.001l0-23.058c2.129-7.401,4.151-14.836,6.089-22.289
								C791.558,501.347,794.833,490.691,795.38,480.28z"/>
						</g>
						<g>
							<g>
								<g>
									<path style="fill:#3B455A;" d="M730.866,311.554c-1.403,5.429,1.818,10.792,4.636,15.371
										c1.151,1.871,2.936,4.474,1.45,6.609c-1.663,2.391-5.794,1.911-7.612,0.124c-1.283-1.262-1.914-2.973-2.461-4.642
										c-2.453-7.477-5.879-17.951-5.209-25.811c0.537-6.303,8.266-17.495,16.228-13.49c1.446,0.727,2.372,2.093,3.165,3.436
										c0.473,0.802,0.931,1.642,1.025,2.557c0.376,3.649-3.144,4.588-5.456,6.55
										C733.782,304.677,731.762,308.088,730.866,311.554z"/>
								</g>
								<g>
									<path style="fill:#E8C8BA;" d="M744.152,331.057c-5.318-0.676-9.763-4.393-12.141-8.868
										c-2.379-4.475-2.946-9.624-2.853-14.645c0.31-16.709,22.466-17.637,31.081-5.629
										C767.746,312.38,759.613,333.022,744.152,331.057z"/>
								</g>
								<g>
									<path style="fill:#3B455A;" d="M759.277,309.803c0.183,2.023,1.212,4.169,1.496,6.248
										c0.523,3.826-0.334,8.792,1.066,12.288c3.885-0.532,8.61-2.962,11.489-5.628c2.94-2.723,2.411-6.772,3.068-10.783
										c0.608-3.71,1.383-7.438,1.171-11.192c-1.16-20.55-21.667-31.787-39.734-22.517c-6.835,3.507-9.824,12.42-4.797,18.276
										c5.407,6.299,16.395,3.568,22.871,8.242C757.344,305.774,758.449,307.637,759.277,309.803z"/>
								</g>
							</g>
							<g>
								<path style="fill:#E8C8BA;" d="M743.707,329.333c0.27,1.244,0.54,2.488,0.809,3.732c0.123,0.57,0.077,2.203,0.568,2.594
									c0.256,0.204,0.636,0.174,0.972,0.132c0.96-0.118,9.559-1.213,9.466-1.76c-0.251-1.466-0.532-2.902-0.99-4.303
									c-0.37-1.131-0.511-3.26-1.193-4.118c-1.46,0.999-2.97,1.616-4.69,2.104c-1.66,0.471-3.329,0.914-5.004,1.329
									C743.665,329.14,743.686,329.237,743.707,329.333z"/>
							</g>
						</g>
					</g>
					<g>
						<g>
							<g>
								<path style="fill:#3B455A;" d="M660.792,460.008l83.262-30.639c2.533-0.932,3.775-3.893,2.774-6.613l-43.249-117.529
									c-1.001-2.72-3.866-4.17-6.399-3.238l-83.262,30.639c-2.533,0.932-3.775,3.893-2.774,6.613l43.249,117.529
									C655.394,459.491,658.259,460.94,660.792,460.008z"/>
							</g>
							<g>
								<path style="fill:#305399;" d="M690.667,386.798l21.803-8.023c1.357-0.499,2.022-2.085,1.486-3.543l-8.382-22.778
									c-0.536-1.457-2.071-2.234-3.428-1.734l-21.803,8.023c-1.357,0.499-2.022,2.085-1.486,3.543l8.382,22.777
									C687.775,386.521,689.31,387.298,690.667,386.798z"/>
							</g>
							<g>
								<path style="fill:#305399;" d="M650.468,401.591l21.803-8.023c1.357-0.499,2.022-2.085,1.486-3.543l-8.382-22.778
									c-0.536-1.457-2.071-2.234-3.428-1.734l-21.803,8.023c-1.357,0.499-2.022,2.085-1.486,3.543l8.382,22.777
									C647.577,401.314,649.111,402.09,650.468,401.591z"/>
							</g>
							<g>
								<path style="fill:#305399;" d="M704.37,424.035l21.803-8.023c1.357-0.499,2.022-2.085,1.486-3.543l-8.382-22.778
									c-0.536-1.457-2.071-2.234-3.428-1.734l-21.803,8.023c-1.357,0.499-2.022,2.085-1.486,3.543l8.382,22.777
									C701.478,423.758,703.013,424.535,704.37,424.035z"/>
							</g>
							<g>
								<path style="fill:#7DB5DB;" d="M664.171,438.828l21.803-8.023c1.357-0.499,2.022-2.085,1.486-3.543l-8.382-22.778
									c-0.536-1.457-2.071-2.234-3.428-1.734l-21.803,8.023c-1.357,0.499-2.022,2.085-1.486,3.543l8.382,22.778
									C661.279,438.551,662.814,439.327,664.171,438.828z"/>
							</g>
							<g>
								<path style="fill:#ECECEC;" d="M692.206,361.323c-0.162-0.44-0.178-0.836-0.05-1.188c0.129-0.352,0.386-0.6,0.773-0.742
									c0.375-0.138,0.732-0.117,1.07,0.064c0.338,0.181,0.587,0.491,0.749,0.931l2.521,6.851l6.158-2.266
									c0.364-0.134,0.734-0.111,1.11,0.07c0.376,0.181,0.632,0.454,0.767,0.82c0.144,0.391,0.133,0.755-0.033,1.094
									c-0.166,0.339-0.448,0.581-0.846,0.727l-6.158,2.266l2.528,6.869c0.144,0.391,0.142,0.78-0.006,1.167
									c-0.148,0.387-0.393,0.644-0.734,0.769c-0.386,0.142-0.743,0.121-1.069-0.064c-0.326-0.185-0.57-0.497-0.732-0.937
									l-2.528-6.869l-6.192,2.279c-0.398,0.146-0.767,0.144-1.107-0.009c-0.34-0.152-0.582-0.423-0.726-0.815
									c-0.144-0.391-0.137-0.767,0.02-1.13c0.157-0.363,0.429-0.615,0.815-0.758l6.192-2.278L692.206,361.323z"/>
							</g>
							<g>
								<path style="fill:#ECECEC;" d="M649.782,388.28c-0.216,0.079-0.442,0.062-0.678-0.052c-0.236-0.114-0.394-0.281-0.475-0.501
									l-0.715-1.942c-0.085-0.232-0.079-0.442,0.02-0.631c0.099-0.189,0.278-0.331,0.54-0.427l14.141-5.204
									c0.228-0.084,0.432-0.082,0.611,0.004c0.18,0.086,0.313,0.245,0.398,0.477l0.715,1.942c0.099,0.269,0.111,0.503,0.036,0.704
									c-0.074,0.201-0.226,0.343-0.453,0.427L649.782,388.28z"/>
							</g>
							<g>
								<path style="fill:#ECECEC;" d="M661.786,420.218c-0.216,0.079-0.442,0.062-0.678-0.052
									c-0.236-0.114-0.394-0.281-0.475-0.501l-0.715-1.942c-0.085-0.232-0.079-0.442,0.02-0.631
									c0.099-0.189,0.278-0.331,0.54-0.427l14.141-5.203c0.228-0.084,0.431-0.083,0.611,0.004c0.18,0.086,0.313,0.245,0.398,0.477
									l0.715,1.942c0.099,0.269,0.111,0.503,0.036,0.704c-0.074,0.201-0.225,0.343-0.453,0.427L661.786,420.218z"/>
							</g>
							<g>
								<path style="fill:#ECECEC;" d="M664.404,427.333c-0.216,0.079-0.442,0.062-0.678-0.052
									c-0.236-0.114-0.394-0.281-0.475-0.501l-0.715-1.942c-0.085-0.232-0.079-0.442,0.02-0.631
									c0.099-0.189,0.279-0.331,0.54-0.428l14.141-5.203c0.227-0.084,0.431-0.082,0.611,0.004c0.18,0.086,0.313,0.246,0.398,0.477
									l0.715,1.942c0.099,0.269,0.111,0.503,0.036,0.704c-0.074,0.201-0.225,0.343-0.453,0.427L664.404,427.333z"/>
							</g>
							<g>
								<g>
									<path style="fill:#ECECEC;" d="M703.466,409.684c-0.216,0.079-0.442,0.062-0.678-0.052
										c-0.236-0.114-0.394-0.281-0.475-0.501l-0.715-1.942c-0.085-0.232-0.079-0.443,0.02-0.631
										c0.099-0.189,0.279-0.331,0.54-0.427l14.141-5.204c0.228-0.084,0.431-0.082,0.611,0.004
										c0.18,0.086,0.313,0.245,0.398,0.477l0.715,1.942c0.099,0.269,0.111,0.503,0.036,0.704
										c-0.074,0.201-0.225,0.343-0.453,0.427L703.466,409.684z"/>
								</g>
								<g>
									<path style="fill:#ECECEC;" d="M706.315,401.434c0.401,1.089,1.547,1.669,2.561,1.296c1.014-0.373,1.511-1.558,1.11-2.647
										c-0.401-1.089-1.547-1.669-2.561-1.296C706.412,399.16,705.915,400.345,706.315,401.434z"/>
								</g>
								<g>
									<path style="fill:#ECECEC;" d="M709.675,410.565c0.401,1.089,1.548,1.669,2.561,1.296c1.014-0.373,1.511-1.558,1.11-2.647
										c-0.401-1.089-1.547-1.669-2.561-1.296C709.772,408.291,709.275,409.476,709.675,410.565z"/>
								</g>
							</g>
						</g>
						<g>
							<path style="fill:#3B455A;" d="M619.069,360.778l92.65-33.431l-7.953-21.611c-1-2.717-4.013-4.109-6.731-3.11l-82.595,30.394
								c-2.717,1-4.11,4.013-3.11,6.731L619.069,360.778z"/>
						</g>
						<g>
							
								<rect x="623.14" y="330.787" transform="matrix(0.9385 -0.3453 0.3453 0.9385 -76.6779 249.931)" style="fill:#ECECEC;" width="79.949" height="18.764"/>
						</g>
					</g>
				</g>
				<g>
					<polygon style="fill:#E8C8BA;" points="785.257,341.409 796.025,347.277 797.951,364.297 785.956,407.247 715.367,428.456 
						694.741,432.52 690.504,427.269 694.156,420.94 703.063,418.665 702.211,413.563 711.872,415.005 768.515,393.834 
						778.222,357.816 					"/>
				</g>
			</g>
			<g>
				<g>
					<g>
						<g>
							<g>
								<polygon style="fill:#3B455A;" points="253.697,548.846 200.795,529.391 211.699,622.067 204.381,707.021 204.211,707.554 
									204.338,707.568 204.324,707.742 214.76,708.738 214.762,708.727 215.15,708.77 239.451,632.535 251.785,556.655 
									251.785,556.655 								"/>
							</g>
							<g>
								<polygon style="fill:#202B38;" points="215.217,707.381 204.394,707.108 201.63,716.24 201.903,716.321 201.834,716.329 
									219.727,726.931 228.234,727.877 229.316,718.154 227.017,716.47 								"/>
							</g>
						</g>
						<g>
							<g>
								<polygon style="fill:#3B455A;" points="289.733,550.438 273.856,715.116 263.384,715.591 252.864,623.911 234.627,538.582 
																	"/>
							</g>
							<g>
								<polygon style="fill:#202B38;" points="273.829,712.8 287.699,720.664 286.399,727.209 261.616,723.473 263.074,714.044 
																	"/>
							</g>
						</g>
						<g>
							<g>
								<g>
									<path style="fill:#BCBEC0;" d="M314.536,590.288c3.348-2.324,3.419-6.371,3.413-10.425
										c-0.011-7.611-1.38-15.392-3.125-22.789c-3.322-13.876-7.088-30.588-8.744-48.569c-4.28-46.47-18.955-77.655-18.955-77.655
										l-4.735-12.627c-0.941-1.642-1.917-3.266-2.937-4.866c-5.914-9.281-16.183-25.052-27.165-27.634
										c-0.229-0.054-0.46-0.107-0.692-0.157c-11.547-2.534-26.343-1.358-36.778,4.255c-1.98,1.065-3.741,2.484-5.489,3.894
										c-5.103,4.116-9.264,6.345-11.464,12.617c-1.91,5.446-2.354,11.389-3.407,17.032c-2.14,11.466-3.416,23.069-5.124,34.602
										c-3.204,21.627-5.924,43.324-9.351,64.918c-1.764,11.113-3.54,22.247-4.374,33.477
										c-0.737,9.929-9.694,20.011-14.727,28.909c-1.752,3.096,23.404,11.12,25.658,11.645
										c10.435,2.429,21.535,1.809,32.292,1.858c23.573,0.107,47.15-0.62,70.672-2.179c7.816-0.518,17.449-2.01,24.384-5.902
										C314.116,590.565,314.332,590.429,314.536,590.288z"/>
								</g>
							</g>
							<g>
								<path style="fill:#FFFFFF;" d="M238.647,384.297c0,0-13.279-3.585-15.113,26.377c-1.834,29.961-4.891,105.781-9.172,126.571
									c-4.28,20.789-10.7,61.567-10.7,61.567l40.661,1.413l46.471-3.669c0,0-15.898-29.35-18.344-50.139
									c-2.446-20.789,1.834-99.055-8.56-128.405C253.495,388.661,251.314,384.824,238.647,384.297z"/>
							</g>
							<g>
								<g>
									<polygon style="fill:#BCBEC0;" points="298.743,451.029 301.8,454.698 322.694,450.397 268.782,390.496 252.272,385.604 
										260.221,407.005 									"/>
								</g>
							</g>
						</g>
						<g>
							<g>
								<g>
									<path style="fill:#3B455A;" d="M246.842,355.684c3.911,5.013,3.323,12.048,2.757,18.083
										c-0.502,5.352-0.171,8.639,5.685,7.956c3.299-0.385,9.176-1.003,11.023-4.289c1.398-2.489-1.681-7.55-3.438-9.372
										c-1.342-1.391-3.633-1.525-4.937-2.951c-0.537-0.588-0.852-1.341-1.129-2.088c-1.13-3.05-1.796-6.272-1.968-9.52
										c-0.117-2.206-0.011-4.45-0.569-6.588c-0.808-3.099-4.179-5.848-6.277-8.215c-3.904-4.402-13.587-8.729-18.214-2.543
										c-1.053,1.409-1.305,3.247-1.439,5.001c-0.08,1.047-0.126,2.127,0.214,3.121c1.355,3.963,5.194,3.35,8.35,4.345
										C240.79,349.85,244.345,352.485,246.842,355.684z"/>
								</g>
								<g>
									<path style="fill:#EAC1A4;" d="M243.192,381.959c4.816-3.104,7.359-8.975,7.549-14.701
										c0.191-5.726-1.684-11.335-4.137-16.513c-8.162-17.23-29.991-8.189-32.658,8.184
										C211.623,373.197,229.189,390.982,243.192,381.959z"/>
								</g>
							</g>
							<g>
								<path style="fill:#EAC1A4;" d="M242.502,380.034c0.635,2.068,1.27,4.135,1.904,6.203c0.093,0.303,0.184,0.639,0.051,0.926
									c-0.151,0.327-0.532,0.468-0.876,0.577c-1.68,0.532-3.359,1.063-5.039,1.595c-0.832,0.263-1.701,0.53-2.564,0.398
									c-1.89-0.288-2.981-2.323-3.361-4.197c-0.38-1.873-0.378-3.898-1.381-5.525c4.026,0.472,5.926-4.498,9.951-4.026
									L242.502,380.034z"/>
							</g>
						</g>
						<g>
							<path style="fill:#3B455A;" d="M215.557,326.871c-5.134,4.056-6.782,11.29-11.643,15.671
								c-2.788,2.512-6.593,4.057-8.434,7.327c-4.126,7.328,4.554,16.55,1.855,24.515c-0.561,1.656-1.59,3.123-2.157,4.777
								c-1.222,3.568-0.162,7.469,0.9,11.089c0.239,0.814,0.54,1.687,0.963,2.441c3.677,7.923,15.389,3.178,19.928,0.976
								c4.982-2.417,2.23-4.685,2.23-4.685l-0.27-0.163c-1.678-3.151-1.57-7.185,0.292-10.233c0.691-1.131,1.616-2.165,1.929-3.452
								c0.703-2.89-1.866-5.478-2.632-8.351c-3.086-11.576,16.657-15.868,19.143-25.772
								C240.708,328.864,225.253,319.211,215.557,326.871z"/>
						</g>
					</g>
				</g>
				<g>
					<g>
						<g>
							<polygon style="fill:#DEC9AD;" points="172.792,514.986 182.054,524.382 186.242,520.599 181.325,512.76 184.136,511.89 
								175.231,504.815 170.346,508.16 							"/>
						</g>
					</g>
					<g>
						<g>
							<polygon style="fill:#BCBEC0;" points="214.201,433.276 183.166,456.895 178.294,503.208 168.005,510.881 157.039,443.039 
								209.328,393.717 							"/>
						</g>
					</g>
				</g>
				<g>
					<g>
						
							<rect x="202.953" y="434.741" transform="matrix(0.9948 0.1023 -0.1023 0.9948 51.5983 -18.497)" style="fill:#3B455A;" width="6.346" height="118.083"/>
					</g>
					<g>
						
							<rect x="257.825" y="440.385" transform="matrix(0.9948 0.1023 -0.1023 0.9948 52.4635 -24.0811)" style="fill:#3B455A;" width="6.346" height="118.083"/>
					</g>
					<g>
						
							<rect x="312.697" y="446.028" transform="matrix(0.9948 0.1023 -0.1023 0.9948 53.3279 -29.6648)" style="fill:#3B455A;" width="6.346" height="118.083"/>
					</g>
					<g>
						
							<rect x="179.574" y="433.61" transform="matrix(0.9948 0.1023 -0.1023 0.9948 46.5351 -25.3091)" style="fill:#3B455A;" width="180.847" height="14.777"/>
					</g>
					<g>
						
							<rect x="167.493" y="551.074" transform="matrix(0.9948 0.1023 -0.1023 0.9948 58.489 -23.4567)" style="fill:#3B455A;" width="180.847" height="14.777"/>
					</g>
					<g>
						<path style="fill:#587BC9;" d="M224.357,468.137l-30.859-3.174c-3.878-0.399-6.725-3.898-6.326-7.777l0.169-1.647
							c0.399-3.878,3.898-6.725,7.776-6.326l30.859,3.174c3.878,0.399,6.725,3.898,6.326,7.776l-0.169,1.647
							C231.734,465.69,228.235,468.536,224.357,468.137z"/>
					</g>
					<g>
						<path style="fill:#587BC9;" d="M220.746,503.245l-30.859-3.174c-3.878-0.399-6.725-3.898-6.326-7.776l0.169-1.647
							c0.399-3.878,3.898-6.725,7.776-6.326l30.859,3.174c3.878,0.399,6.725,3.898,6.326,7.776l-0.169,1.647
							C228.123,500.797,224.624,503.643,220.746,503.245z"/>
					</g>
					<g>
						<path style="fill:#587BC9;" d="M218.727,522.872l-30.859-3.174c-3.878-0.399-6.725-3.898-6.326-7.776l0.169-1.647
							c0.399-3.878,3.898-6.725,7.776-6.326l30.859,3.174c3.878,0.399,6.725,3.898,6.326,7.776l-0.169,1.647
							C226.105,520.424,222.605,523.271,218.727,522.872z"/>
					</g>
					<g>
						<path style="fill:#587BC9;" d="M216.689,542.687l-30.859-3.174c-3.878-0.399-6.725-3.898-6.326-7.776l0.17-1.647
							c0.399-3.878,3.898-6.725,7.776-6.326l30.859,3.174c3.878,0.399,6.725,3.898,6.326,7.776l-0.169,1.647
							C224.067,540.239,220.568,543.085,216.689,542.687z"/>
					</g>
					<g>
						<path style="fill:#587BC9;" d="M279.228,473.781l-30.859-3.174c-3.878-0.399-6.725-3.898-6.326-7.776l0.169-1.647
							c0.399-3.878,3.898-6.725,7.776-6.326l30.859,3.174c3.878,0.399,6.725,3.898,6.326,7.776l-0.169,1.647
							C286.606,471.333,283.107,474.18,279.228,473.781z"/>
					</g>
					<g>
						<path style="fill:#587BC9;" d="M277.166,493.838l-30.859-3.174c-3.878-0.399-6.725-3.898-6.326-7.776l0.169-1.647
							c0.399-3.878,3.898-6.725,7.776-6.326l30.859,3.174c3.878,0.399,6.725,3.898,6.326,7.776l-0.169,1.647
							C284.543,491.39,281.044,494.237,277.166,493.838z"/>
					</g>
					<g>
						<path style="fill:#587BC9;" d="M273.599,528.515l-30.859-3.174c-3.878-0.399-6.725-3.898-6.326-7.776l0.169-1.647
							c0.399-3.878,3.898-6.725,7.777-6.326l30.859,3.174c3.878,0.399,6.725,3.898,6.326,7.776l-0.169,1.647
							C280.977,526.067,277.477,528.914,273.599,528.515z"/>
					</g>
					<g>
						<path style="fill:#587BC9;" d="M271.561,548.33l-30.859-3.174c-3.878-0.399-6.725-3.898-6.326-7.776l0.169-1.648
							c0.399-3.878,3.898-6.725,7.776-6.326l30.859,3.174c3.878,0.399,6.725,3.898,6.326,7.776l-0.169,1.648
							C278.939,545.882,275.439,548.729,271.561,548.33z"/>
					</g>
					<g>
						<path style="fill:#587BC9;" d="M334.1,479.424l-30.859-3.174c-3.878-0.399-6.725-3.898-6.326-7.776l0.169-1.647
							c0.399-3.878,3.898-6.725,7.776-6.326l30.859,3.174c3.878,0.399,6.725,3.898,6.326,7.776l-0.169,1.647
							C341.478,476.977,337.979,479.823,334.1,479.424z"/>
					</g>
					<g>
						<path style="fill:#587BC9;" d="M330.49,514.531l-30.859-3.174c-3.878-0.399-6.725-3.898-6.326-7.776l0.169-1.647
							c0.399-3.878,3.898-6.725,7.776-6.326l30.859,3.174c3.878,0.399,6.725,3.898,6.326,7.776l-0.169,1.647
							C337.867,512.084,334.368,514.93,330.49,514.531z"/>
					</g>
					<g>
						<path style="fill:#587BC9;" d="M328.471,534.159l-30.859-3.174c-3.878-0.399-6.725-3.898-6.326-7.776l0.169-1.647
							c0.399-3.878,3.898-6.725,7.776-6.326l30.859,3.174c3.878,0.399,6.725,3.898,6.326,7.776l-0.169,1.647
							C335.849,531.711,332.349,534.557,328.471,534.159z"/>
					</g>
					<g>
						<path style="fill:#587BC9;" d="M326.433,553.974l-30.859-3.174c-3.878-0.399-6.725-3.898-6.326-7.776l0.169-1.647
							c0.399-3.878,3.898-6.725,7.776-6.326l30.859,3.174c3.878,0.399,6.725,3.898,6.326,7.776l-0.169,1.647
							C333.811,551.526,330.311,554.372,326.433,553.974z"/>
					</g>
				</g>
				<g>
					<polygon style="fill:#EAC1A4;" points="347.035,456.349 342.035,451.979 333.897,456.837 334.363,469.411 341.961,472.275 
											"/>
				</g>
			</g>
			<g>
				<g>
					<g>
						<path style="fill:#EAC1A4;" d="M790.059,475.877c0,0-6.28,1.45-6.38,1.473c-2.329,0.538-10.059,9.149-11.666,11.09
							c-0.918,1.108,9.701,2.115,10.716,1.931c1.732-0.315,4.83-3.631,6.452-4.72l3.457,1.397l2.931-3.783L790.059,475.877z"/>
					</g>
					<g>
						<g>
							<polygon style="fill:#202B38;" points="945.796,711.994 946.697,719.002 933.582,727.812 925.674,721.705 931.78,713.796 
								944.895,704.987 							"/>
						</g>
						<g>
							<g>
								<polygon style="fill:#3B455A;" points="946.239,709.642 936.125,620.271 948.294,520.22 945.557,498.937 891.206,496.872 
									889.245,531.512 898.369,620.408 932.696,714.209 								"/>
							</g>
						</g>
						<g>
							<polygon style="fill:#587BC9;" points="882.551,399.93 858.122,414.285 842.659,441.185 787.707,474.467 795.791,487.31 
								843.161,471.525 867.382,459.027 							"/>
						</g>
						<g>
							<g>
								<polygon style="fill:#3B455A;" points="851.325,506.888 851.182,597.075 869.335,713.175 882.402,713.045 889.584,605.679 
									906.394,498.217 								"/>
							</g>
							<g>
								<polygon style="fill:#3B455A;" points="882.382,718.555 868.322,725.761 861.187,718.767 868.181,711.631 882.311,711.49 
																	"/>
							</g>
						</g>
						<g>
							<g>
								<path style="fill:#587BC9;" d="M953.918,537.561c-0.125-3.908-0.342-7.17-0.373-8.335
									c-0.28-10.484-1.214-20.944-2.526-31.354c-1.176-9.328-2.661-32.486-4.257-41.757c-1.318-7.654-5.911-26.76-9.23-33.86
									c-8.253-17.656-5.703-19.287-41.956-24.53c-15.888-2.298-19.644,7.604-32.633,18.991c-1.281,1.123-1.21,7.81-1.508,9.58
									c-0.523,3.118-1.084,6.231-1.727,9.329c-0.505,2.435-1.063,4.863-1.689,7.275l0.001-0.001c0,0-10.905,49.624-18.116,60.164
									c-7.211,10.539-22.109,25.274,2.812,34.27c4.417,1.428,8.86,2.786,13.457,3.512c0,0,20.381-2.265,30.862-2.187
									c9.654,0.072,19.347,1.049,28.837,2.686c6.346,1.061,12.822,2.602,18.499,5.567c5.416,2.829,9.325,6.991,14.82,9.92
									c0.521,0.277,1.091,0.564,1.683,0.483C954.032,556.877,954.18,545.786,953.918,537.561z"/>
							</g>
						</g>
						<g>
							<g>
								<path style="fill:#EAC1A4;" d="M896.934,399.682c1.752,1.045,6.031,1.708,10.659,0.304c0.933-0.283,1.612-1.107,1.676-2.08
									c0.18-2.73,0.176-5.472-0.012-8.201c3.461-0.918,7.492-2.386,8.357-5.861c0.273-1.094,0.17-2.243,0.066-3.366
									c-0.43-4.642-0.859-9.285-1.288-13.927c-0.149-1.606-0.311-3.259-1.065-4.685c-1.323-2.501-4.175-3.775-6.916-4.477
									c-6.995-1.792-14.845-0.866-20.711,3.344c-1.561,1.121-3.002,2.502-3.79,4.255c-1.215,2.703-0.713,5.829-0.189,8.745
									c0.484,2.692,0.968,5.384,1.452,8.075c0.557,3.096,1.434,6.635,4.267,8.003c1.504,0.727,3.35,0.695,4.684,1.7
									C896.478,393.284,895.854,396.942,896.934,399.682z"/>
							</g>
							<g>
								<path style="fill:#3B455A;" d="M859.611,350.772c-0.606-1.199-1.269-2.362-2.027-3.463c-1.641-2.386-3.73-4.485-4.997-7.089
									c-1.267-2.604-1.515-6.019,0.422-8.171c1.25-1.389,3.147-1.983,4.976-2.368c6.026-1.268,12.392-0.883,18.222,1.102
									c5.552,1.89,10.435,4.68,16.308,3c5.518-1.578,9.325-0.457,14.768,1.985c5.891,2.642,13.988,3.795,19.234,7.282
									c2.19,1.456,3.862,3.593,5.113,5.907c4.335,8.016,3.531,18.533-1.971,25.798c-1.234,1.63-2.673,3.095-4.174,4.484
									c-3.105,2.875-6.828,6.436-10.853,7.274c0.185-3.527,4.267-14.371,1.792-17.469c-3.928-4.916-13.752-4.086-19.162-3.38
									c-5.901,0.771-11.399,4.472-17.223,4.895c-4.19,0.305-9.314-2.143-12.666-4.562
									C863.237,363.012,861.824,355.147,859.611,350.772z"/>
							</g>
						</g>
						<g>
							<polygon style="fill:#587BC9;" points="924.533,404.257 950.239,410.858 930.451,369.304 937.698,353.99 976.55,414.914 
								971.826,438.692 924.88,446.892 							"/>
						</g>
					</g>
				</g>
				<g>
					<path style="fill:#EAC1A4;" d="M936.951,358.09c-1.193-4.831-2.961-9.519-5.256-13.934c-0.746-1.435-1.888-3.041-3.503-2.943
						c-1.852,0.113-2.723,2.333-2.955,4.173c-0.438,3.469-0.165,7.026,0.796,10.388c-0.397,0.694-1.387-0.525-2.166-0.346
						c-0.357,0.082-0.567,0.453-0.664,0.806c-1.327,4.826,4.911,8.171,7.748,10.535c2.534-3.03,3.369-6.555,6.747-9.002
						L936.951,358.09z"/>
				</g>
			</g>
			<g>
				<g>
					<g>
						<rect x="647.856" y="489.38" style="fill:#FFFFFF;" width="78.559" height="78.559"/>
						<path style="fill:#305399;" d="M727.799,569.323h-81.327v-81.326h81.327V569.323z M649.24,566.555h75.79v-75.791h-75.79
							V566.555z"/>
					</g>
					<g>
						<rect x="726.414" y="489.38" style="fill:#FFFFFF;" width="78.559" height="78.559"/>
						<path style="fill:#305399;" d="M806.357,569.323H725.03v-81.326h81.327V569.323z M727.799,566.555h75.79v-75.791h-75.79
							V566.555z"/>
					</g>
					<g>
						<rect x="804.973" y="489.38" style="fill:#FFFFFF;" width="78.559" height="78.559"/>
						<path style="fill:#305399;" d="M884.916,569.323h-81.327v-81.326h81.327V569.323z M806.357,566.555h75.79v-75.791h-75.79
							V566.555z"/>
					</g>
					<g>
						<rect x="647.856" y="567.939" style="fill:#FFFFFF;" width="78.559" height="78.559"/>
						<path style="fill:#305399;" d="M727.799,647.882h-81.327v-81.327h81.327V647.882z M649.24,645.114h75.79v-75.791h-75.79
							V645.114z"/>
					</g>
					<g>
						<rect x="726.414" y="567.939" style="fill:#FFFFFF;" width="78.559" height="78.559"/>
						<path style="fill:#305399;" d="M806.357,647.882H725.03v-81.327h81.327V647.882z M727.799,645.114h75.79v-75.791h-75.79
							V645.114z"/>
					</g>
					<g>
						<rect x="804.973" y="567.939" style="fill:#FFFFFF;" width="78.559" height="78.559"/>
						<path style="fill:#305399;" d="M884.916,647.882h-81.327v-81.327h81.327V647.882z M806.357,645.114h75.79v-75.791h-75.79
							V645.114z"/>
					</g>
					<g>
						<rect x="647.856" y="646.498" style="fill:#FFFFFF;" width="78.559" height="78.559"/>
						<path style="fill:#305399;" d="M727.799,726.44h-81.327v-81.326h81.327V726.44z M649.24,723.672h75.79v-75.791h-75.79V723.672
							z"/>
					</g>
					<g>
						<rect x="726.414" y="646.498" style="fill:#FFFFFF;" width="78.559" height="78.559"/>
						<path style="fill:#305399;" d="M806.357,726.44H725.03v-81.326h81.327V726.44z M727.799,723.672h75.79v-75.791h-75.79V723.672
							z"/>
					</g>
					<g>
						<rect x="804.973" y="646.498" style="fill:#FFFFFF;" width="78.559" height="78.559"/>
						<path style="fill:#305399;" d="M884.916,726.44h-81.327v-81.326h81.327V726.44z M806.357,723.672h75.79v-75.791h-75.79
							V723.672z"/>
					</g>
				</g>
				<g>
					<path style="fill:#3B455A;" d="M858.788,543.633v7.084h-27.711v-6.517l13.431-14.281c2.795-3.022,4.194-5.781,4.194-8.274
						c0-1.587-0.464-2.786-1.388-3.599c-0.927-0.812-2.278-1.218-4.052-1.218c-3.439,0-7.008,1.303-10.711,3.91l-2.834-6.347
						c1.625-1.398,3.703-2.503,6.234-3.316c2.531-0.812,5.101-1.218,7.707-1.218c4.194,0,7.528,1.011,10.003,3.032
						c2.474,2.021,3.711,4.732,3.711,8.132c0,2.343-0.482,4.506-1.444,6.489c-0.964,1.984-2.579,4.185-4.846,6.602l-9.124,9.521
						H858.788z"/>
				</g>
				<g>
					<path style="fill:#3B455A;" d="M860.555,691.606c1.266,1.681,1.898,3.75,1.898,6.206c0,3.552-1.341,6.347-4.023,8.387
						c-2.683,2.04-6.329,3.06-10.938,3.06c-2.796,0-5.477-0.406-8.047-1.218c-2.569-0.812-4.647-1.917-6.234-3.316l2.834-6.347
						c3.589,2.607,7.272,3.91,11.051,3.91c2.455,0,4.241-0.425,5.355-1.275s1.672-2.2,1.672-4.052c0-1.776-0.558-3.07-1.672-3.882
						c-1.114-0.812-2.9-1.218-5.355-1.218h-5.78v-6.914h4.817c2.341,0,4.08-0.405,5.213-1.218c1.133-0.812,1.7-2.049,1.7-3.712
						c0-1.662-0.501-2.928-1.502-3.797c-1.001-0.869-2.428-1.303-4.278-1.303c-1.739,0-3.514,0.331-5.327,0.992
						c-1.814,0.661-3.59,1.634-5.327,2.918l-2.834-6.347c1.625-1.398,3.703-2.503,6.234-3.316c2.531-0.812,5.138-1.218,7.821-1.218
						c2.72,0,5.109,0.453,7.168,1.36c2.059,0.907,3.646,2.173,4.761,3.797c1.114,1.625,1.671,3.533,1.671,5.724
						c0,2.192-0.548,4.09-1.643,5.695c-1.096,1.606-2.645,2.787-4.648,3.542C857.485,688.745,859.288,689.926,860.555,691.606z"/>
				</g>
				<g>
					<path style="fill:#3B455A;" d="M775.424,524.171c1.946,1.076,3.457,2.598,4.534,4.562c1.077,1.965,1.615,4.232,1.615,6.801
						c0,2.72-0.633,5.11-1.898,7.169c-1.266,2.06-3.08,3.646-5.44,4.76c-2.362,1.115-5.11,1.672-8.245,1.672
						c-2.571,0-5.11-0.416-7.623-1.247c-2.513-0.83-4.543-1.927-6.092-3.287l2.834-6.347c3.589,2.607,7.254,3.91,10.995,3.91
						c4.722,0,7.084-2.097,7.084-6.29c0-2.002-0.615-3.579-1.842-4.732c-1.228-1.152-2.9-1.729-5.015-1.729
						c-1.323,0-2.655,0.247-3.996,0.737c-1.341,0.491-2.541,1.171-3.598,2.04h-5.044v-23.858h25.898v6.801h-17.284v9.01
						c1.775-1.057,3.929-1.587,6.46-1.587C771.259,522.556,773.478,523.094,775.424,524.171z"/>
				</g>
				<g>
					<path style="fill:#3B455A;" d="M774.875,684.211c1.869,1.115,3.323,2.664,4.363,4.647c1.039,1.983,1.558,4.241,1.558,6.772
						c0,2.607-0.594,4.95-1.785,7.027c-1.19,2.078-2.834,3.703-4.93,4.874c-2.096,1.172-4.468,1.757-7.112,1.757
						c-5.252,0-9.294-1.737-12.128-5.214c-2.834-3.475-4.25-8.424-4.25-14.847c0-4.421,0.68-8.226,2.04-11.419
						c1.36-3.192,3.305-5.639,5.837-7.339c2.53-1.7,5.553-2.55,9.068-2.55c2.493,0,4.911,0.396,7.253,1.19
						c2.343,0.794,4.344,1.909,6.007,3.344l-2.89,6.347c-3.4-2.607-6.725-3.91-9.974-3.91c-2.645,0-4.704,1.067-6.177,3.202
						c-1.473,2.135-2.286,5.262-2.436,9.379c0.868-1.51,2.125-2.711,3.768-3.598c1.644-0.887,3.466-1.332,5.469-1.332
						C770.898,682.539,773.004,683.097,774.875,684.211z M770.795,700.617c1.076-1.171,1.615-2.721,1.615-4.647
						c0-2.002-0.53-3.579-1.587-4.732c-1.058-1.152-2.513-1.729-4.363-1.729c-1.814,0-3.278,0.596-4.392,1.785
						c-1.115,1.19-1.672,2.748-1.672,4.676c0,1.89,0.567,3.428,1.7,4.618c1.133,1.19,2.587,1.785,4.364,1.785
						C768.272,702.374,769.718,701.788,770.795,700.617z"/>
				</g>
				<g>
					<path style="fill:#3B455A;" d="M752.344,588.273h28.959v6.574l-17.964,33.776h-9.465l17.908-33.266h-19.438V588.273z"/>
				</g>
				<g>
					<path style="fill:#3B455A;" d="M699.109,691.578c1.435,1.7,2.153,3.778,2.153,6.234c0,2.342-0.652,4.373-1.955,6.092
						c-1.304,1.719-3.127,3.041-5.469,3.966c-2.343,0.926-5.025,1.388-8.047,1.388c-3.023,0-5.706-0.462-8.048-1.388
						c-2.342-0.925-4.165-2.247-5.468-3.966c-1.304-1.719-1.956-3.75-1.956-6.092c0-2.455,0.728-4.543,2.183-6.262
						c1.454-1.719,3.465-2.899,6.035-3.542c-2.267-0.755-4.043-1.927-5.326-3.514c-1.286-1.587-1.927-3.457-1.927-5.61
						c0-2.191,0.623-4.118,1.87-5.781c1.247-1.662,2.975-2.938,5.186-3.825c2.21-0.887,4.695-1.332,7.453-1.332
						c2.757,0,5.242,0.444,7.451,1.332c2.21,0.888,3.939,2.163,5.186,3.825c1.248,1.663,1.871,3.589,1.871,5.781
						c0,2.191-0.652,4.1-1.956,5.724c-1.303,1.624-3.069,2.758-5.299,3.4C695.651,688.688,697.672,689.878,699.109,691.578z
						 M691.089,701.099c1.303-0.907,1.955-2.229,1.955-3.967c0-1.624-0.652-2.947-1.955-3.967c-1.304-1.02-3.07-1.7-5.299-2.04
						c-2.23,0.34-3.996,1.02-5.299,2.04c-1.304,1.02-1.956,2.343-1.956,3.967c0,1.738,0.652,3.06,1.956,3.967
						c1.303,0.906,3.069,1.36,5.299,1.36C688.019,702.459,689.785,702.005,691.089,701.099z M681.285,676.05
						c-1.114,0.869-1.671,2.135-1.671,3.796c0,1.587,0.557,2.862,1.671,3.825c1.114,0.964,2.616,1.635,4.506,2.012
						c1.889-0.377,3.391-1.048,4.505-2.012c1.114-0.964,1.673-2.238,1.673-3.825c0-1.662-0.558-2.927-1.673-3.796
						c-1.114-0.869-2.616-1.304-4.505-1.304C683.901,674.747,682.399,675.182,681.285,676.05z"/>
				</g>
				<g>
					<path style="fill:#3B455A;" d="M690.21,620.309h8.728v7.084h-26.295v-7.084h8.727v-23.405l-8.16,4.816v-7.764l11.843-6.914
						h5.157V620.309z"/>
				</g>
			</g>
			<g>
				<g>
					<path style="fill:#D7E8F4;" d="M300.771,232.337c-1.272-18.935-17.55-33.277-36.449-32.22
						c-0.015-0.597-0.035-1.194-0.075-1.796c-1.554-23.126-21.561-40.614-44.687-39.061c-12.583,0.845-23.488,7.161-30.574,16.463
						c-7.641-7.614-18.392-12.029-30.001-11.249c-20.66,1.388-36.45,18.702-36.204,39.156c-0.879-0.007-1.763,0.007-2.654,0.067
						c-19.067,1.281-33.485,17.776-32.204,36.843c0.955,14.22,10.378,25.842,23.013,30.306c-0.966,3.932-1.39,8.067-1.175,12.319
						c1.189,23.474,21.182,41.541,44.656,40.352c7.312-0.37,14.099-2.567,19.943-6.123c1.938,1.094,3.208,1.948,3.208,1.948
						c5.519,3.152,11.99,4.776,18.807,4.318c12.363-0.831,22.699-8.276,27.805-18.646c5.974,3.205,12.888,4.833,20.151,4.345
						c20.605-1.384,36.186-19.21,34.801-39.815c-0.06-0.896-0.163-1.779-0.284-2.655
						C292.542,261.538,301.808,247.783,300.771,232.337z"/>
				</g>
				<g>
					
						<ellipse transform="matrix(0.9917 -0.1282 0.1282 0.9917 -42.7982 21.9534)" style="fill:#D7E8F4;" cx="149.093" cy="343.351" rx="15.064" ry="15.064"/>
				</g>
				<g>
					<path style="fill:#D7E8F4;" d="M162.058,370.559c-0.295-5.823,4.187-10.783,10.01-11.078
						c5.823-0.295,10.783,4.187,11.078,10.01c0.295,5.823-4.187,10.783-10.01,11.078
						C167.313,380.865,162.353,376.383,162.058,370.559z"/>
				</g>
				<g>
					<path style="fill:#305399;" d="M164.009,248.776l-0.595,9.269l-7.43-0.477l-0.639,9.958l-11.721-0.753l0.64-9.958
						l-22.903-1.471l0.571-8.886l27.342-34.088l9.576,0.615l-2.268,35.314L164.009,248.776z M132.908,246.779l11.95,0.767
						l1.102-17.159L132.908,246.779z"/>
				</g>
				<g>
					<path style="fill:#305399;" d="M242.844,220.09c2.249,1.9,3.648,4.452,4.193,7.656c0.52,3.056,0.12,5.851-1.198,8.383
						c-1.32,2.533-3.404,4.662-6.255,6.389c-2.851,1.729-6.248,2.927-10.191,3.598c-3.945,0.671-7.547,0.664-10.809-0.025
						c-3.262-0.687-5.933-2.007-8.015-3.961c-2.083-1.953-3.384-4.458-3.904-7.515c-0.545-3.204-0.059-6.089,1.458-8.655
						c1.516-2.565,3.878-4.552,7.087-5.961c-3.125-0.482-5.702-1.617-7.729-3.402c-2.03-1.785-3.282-4.082-3.76-6.892
						c-0.487-2.859-0.101-5.511,1.156-7.957c1.259-2.446,3.23-4.493,5.917-6.142c2.687-1.648,5.83-2.78,9.428-3.392
						c3.597-0.612,6.938-0.584,10.018,0.083c3.081,0.668,5.62,1.947,7.615,3.84c1.997,1.893,3.238,4.268,3.724,7.127
						c0.486,2.859,0.06,5.494-1.281,7.902c-1.339,2.409-3.392,4.28-6.158,5.613C237.691,217.087,240.592,218.191,242.844,220.09z
						 M234.495,234.292c1.498-1.473,2.055-3.342,1.67-5.61c-0.361-2.119-1.505-3.7-3.431-4.742
						c-1.928-1.041-4.383-1.537-7.366-1.485c-2.834,0.938-4.987,2.218-6.46,3.838c-1.475,1.62-2.032,3.491-1.671,5.61
						c0.386,2.268,1.53,3.848,3.433,4.742c1.901,0.894,4.306,1.093,7.215,0.598C230.791,236.748,232.995,235.765,234.495,234.292z
						 M216.141,203.788c-1.261,1.381-1.707,3.156-1.338,5.324c0.352,2.071,1.362,3.61,3.03,4.62c1.668,1.01,3.776,1.552,6.326,1.624
						c2.381-0.911,4.191-2.12,5.431-3.625c1.24-1.504,1.685-3.291,1.333-5.362c-0.369-2.168-1.378-3.695-3.025-4.582
						c-1.647-0.886-3.703-1.12-6.167-0.701C219.265,201.505,217.402,202.407,216.141,203.788z"/>
				</g>
				<g>
					<path style="fill:#305399;" d="M213.255,283.238l2.337,8.435l-32.998,9.142l-2.15-7.76l11.282-21.435
						c2.331-4.521,3.087-8.267,2.265-11.236c-0.524-1.89-1.471-3.165-2.84-3.828c-1.372-0.661-3.114-0.699-5.227-0.114
						c-4.095,1.134-7.915,3.864-11.465,8.189l-5.468-6.623c1.473-2.2,3.584-4.202,6.329-6.005c2.746-1.801,5.671-3.133,8.775-3.993
						c4.994-1.383,9.298-1.28,12.911,0.31c3.612,1.591,5.98,4.41,7.102,8.459c0.773,2.79,0.913,5.524,0.421,8.203
						c-0.494,2.68-1.691,5.834-3.592,9.46l-7.724,14.347L213.255,283.238z"/>
				</g>
			</g>
		</g>
		<g>
			<path style="fill:#305399;" d="M957.598,231.473c-1.056,4.201-2.61,7.839-4.663,10.917c-2.055,3.078-4.478,5.572-7.273,7.484
				c-2.796,1.911-5.904,3.227-9.325,3.946c-3.421,0.72-7.027,0.821-10.817,0.304l-4.381,14.827
				c-0.283,0.909-1.188,1.417-2.711,1.524c-1.525,0.107-3.62-0.174-6.282-0.843c-1.692-0.425-3.102-0.821-4.236-1.188
				c-1.132-0.367-2.007-0.736-2.62-1.108c-0.615-0.371-1.031-0.776-1.248-1.212c-0.217-0.435-0.281-0.941-0.189-1.518l3.865-18.306
				c0.36-1.652,0.773-2.963,1.235-3.937c0.462-0.973,1.04-1.699,1.733-2.179c0.691-0.479,1.477-0.731,2.354-0.756
				c0.877-0.024,1.88,0.105,3.006,0.388l1.077,0.271c2.713,0.682,5.165,0.836,7.358,0.461c2.19-0.375,4.106-1.119,5.748-2.232
				c1.64-1.111,3-2.566,4.079-4.365c1.078-1.799,1.893-3.799,2.447-6.002c0.618-2.459,0.839-4.799,0.663-7.022
				c-0.176-2.222-0.782-4.253-1.818-6.093c-1.036-1.839-2.517-3.423-4.441-4.751c-1.927-1.328-4.325-2.354-7.193-3.075
				c-2.612-0.656-4.981-0.978-7.107-0.969c-2.128,0.01-3.986,0.142-5.574,0.396c-1.589,0.254-2.922,0.519-3.997,0.792
				c-1.078,0.274-1.871,0.347-2.383,0.218c-0.359-0.09-0.662-0.289-0.912-0.597c-0.25-0.307-0.399-0.795-0.449-1.461
				c-0.051-0.667,0.001-1.578,0.156-2.738c0.155-1.159,0.453-2.609,0.89-4.351c0.451-1.793,0.855-3.08,1.214-3.861
				c0.36-0.779,0.86-1.362,1.502-1.746c0.639-0.383,1.764-0.741,3.373-1.072c1.606-0.331,3.485-0.539,5.63-0.627
				c2.145-0.086,4.499-0.025,7.061,0.182c2.56,0.208,5.174,0.647,7.838,1.316c6.043,1.519,11.008,3.653,14.891,6.398
				c3.885,2.747,6.843,5.873,8.875,9.378c2.032,3.506,3.231,7.238,3.598,11.196C958.94,223.425,958.615,227.427,957.598,231.473z
				 M918.305,291.602c-0.528,2.101-1.138,3.826-1.831,5.176c-0.695,1.351-1.573,2.355-2.637,3.013
				c-1.065,0.659-2.349,1.002-3.854,1.033c-1.505,0.03-3.282-0.213-5.331-0.728c-2.152-0.541-3.87-1.177-5.156-1.908
				c-1.287-0.732-2.243-1.639-2.87-2.723c-0.627-1.083-0.925-2.383-0.897-3.902c0.026-1.517,0.304-3.326,0.832-5.427
				c0.541-2.152,1.161-3.915,1.862-5.291c0.699-1.376,1.583-2.406,2.655-3.09c1.071-0.683,2.345-1.044,3.826-1.08
				c1.479-0.037,3.294,0.215,5.445,0.756c2.049,0.515,3.729,1.141,5.041,1.88c1.313,0.738,2.278,1.663,2.898,2.771
				c0.62,1.109,0.913,2.435,0.88,3.978C919.133,287.603,918.846,289.45,918.305,291.602z"/>
		</g>
	</g>
</g>
</svg>
