<svg id="Layer_1" data-name="Layer 1" xmlns="http://www.w3.org/2000/svg" viewBox="0 0 529.41 467.12"><path d="M251.26,292a116.78,116.78,0,1,0-128.82,0C51.1,318.28,0,386.76,0,467.12H31.14c0-85.86,69.85-155.7,155.71-155.7s155.71,69.84,155.71,155.7H373.7C373.7,386.76,322.6,318.28,251.26,292Zm-64.41-11.69a85.64,85.64,0,1,1,85.64-85.63A85.73,85.73,0,0,1,186.85,280.27Z"/><path d="M407,214.1A116.66,116.66,0,1,0,242.1,57.52a147.52,147.52,0,0,1,27.53,14.59,86.23,86.23,0,0,1,20.9-23.2,85.49,85.49,0,1,1,52,153.51c-2.76,0-5.47-.16-8.16-.41a147.64,147.64,0,0,1-5.24,32.51c4.45-.39,8.85-1,13.4-1a155.21,155.21,0,0,1,18.65,1.23c77.08,9.26,137.06,74.94,137.06,154.48h31.14C529.41,308.9,478.31,240.43,407,214.1Z"/></svg>