<svg xmlns="http://www.w3.org/2000/svg" viewBox="0 0 514.52 526.06"><defs><style>.cls-1{fill:none;}.cls-2{fill:#231f20;}</style></defs><g id="objects"><path class="cls-1" d="M64.44,83C66,116,74.35,155.34,88.7,155.34h43.85C124.67,131,120.07,105.63,117.42,83Z"/><path class="cls-1" d="M382.06,155.34h40.21C436.63,155.34,445,116,446.54,83H397.19C394.54,105.63,389.93,131,382.06,155.34Z"/><path class="cls-2" d="M400.57,19.94c0-6.16-.24-10-.28-10.93l-.41-9H114.76l-.44,9c0,.9-.25,4.77-.29,10.93H0l0,9.47c.08,19.37,2.94,189,77.53,189h86.75a136.6,136.6,0,0,0,8.93,10.4,115.88,115.88,0,0,0,27.4,21.49L153.39,445.88H361.22L314,250.37a115.89,115.89,0,0,0,27.41-21.53q4.71-5,8.93-10.4H437c74.59,0,77.45-169.66,77.53-189l0-9.47ZM88.7,155.34C74.35,155.34,66,116,64.44,83h53c2.65,22.6,7.25,47.93,15.13,72.31Zm202.14-18.49,7.93,46.23-41.52-21.83-41.52,21.83,7.93-46.23-33.59-32.74,46.42-6.75L257.25,55.3,278,97.36l46.42,6.75Zm131.43,18.49H382.06C389.93,131,394.54,105.63,397.19,83h49.35C445,116,436.63,155.34,422.27,155.34Z"/><rect class="cls-2" x="125.33" y="455.51" width="263.95" height="70.56"/></g></svg>