<svg xmlns="http://www.w3.org/2000/svg" viewBox="0 0 283.47 286.04"><g id="OBJECTS"><path d="M167.07,255.57H43.71a13.26,13.26,0,0,1-13.24-13.24V43.71A13.26,13.26,0,0,1,43.71,30.47H167.07a15.24,15.24,0,1,0,0-30.47H43.71A43.76,43.76,0,0,0,0,43.71V242.33A43.76,43.76,0,0,0,43.71,286H167.07a15.24,15.24,0,1,0,0-30.47Z"/><path d="M279.7,129.14,223.32,78.27a11.43,11.43,0,0,0-19.08,8.48v35.64H69.11a15.24,15.24,0,1,0,0,30.47H204.24v35.64A11.43,11.43,0,0,0,223.32,197l56.38-50.88a11.43,11.43,0,0,0,0-17Z"/></g></svg>