<svg xmlns="http://www.w3.org/2000/svg" viewBox="0 0 444.51 449.98"><defs><style>.cls-1{fill:none;}.cls-2,.cls-3{fill:#e0e0e0;}.cls-3,.cls-4{fill-rule:evenodd;}.cls-4,.cls-5{fill:#ebebeb;}.cls-6{fill:#f5f5f5;}.cls-7{fill:#263238;}.cls-8{fill:#ffbe9d;}.cls-9{fill:#eb996e;}.cls-10{fill:#36449c;}.cls-11,.cls-13{opacity:0.4;}.cls-12{fill:#2b579f;}.cls-14{fill:#fafafa;}.cls-15{fill:#e8505b;}.cls-16{fill:#fff;}.cls-17{fill:#455a64;}.cls-18{opacity:0.6;}.cls-19{opacity:0.3;}.cls-20{fill:#53a5e6;}.cls-21{opacity:0.2;}</style></defs><g id="Background_Complete" data-name="Background Complete"><path class="cls-1" d="M335.22,239.68a27,27,0,0,1-7,1.18l-2.88,5.95-10.65-2.47,0-6.61a26.26,26.26,0,0,1-5.8-4.14l-6.24,2.18-5.79-9.28,4.69-4.65a26.59,26.59,0,0,1-1.17-7l-5.95-2.88,2.46-10.65,6.61,0a26.83,26.83,0,0,1,4.14-5.8l-2.17-6.24,9.27-5.79,4.65,4.69a27.07,27.07,0,0,1,7-1.17l2.88-5.95L340,183.52l0,6.6a26.93,26.93,0,0,1,5.8,4.14l6.24-2.17,5.79,9.28L353.06,206a26.52,26.52,0,0,1,1.17,7l5.95,2.87-2.46,10.65-6.61,0a26.83,26.83,0,0,1-4.14,5.8l2.17,6.24-9.27,5.79-4.65-4.7Zm-2.12-15.54a11.73,11.73,0,1,0-16.17-3.74A11.73,11.73,0,0,0,333.1,224.14Z"/><path class="cls-2" d="M333.1,224.14a9,9,0,0,1-2.59,1.33,11.67,11.67,0,0,1-7.86-.1,11.83,11.83,0,0,1-4.6-3.05,12,12,0,0,1-2.93-5.62,11.3,11.3,0,0,1-.24-3.45,11.54,11.54,0,0,1,.81-3.52,12,12,0,0,1,12.1-7.55,11.89,11.89,0,0,1,6.51,2.54,12,12,0,0,1,3.76,5.11,11.84,11.84,0,0,1,.73,5.47,11.64,11.64,0,0,1-3.37,7.1,8.8,8.8,0,0,1-2.32,1.74c-.05-.07.87-.57,2.14-1.92a11.66,11.66,0,0,0,3.07-7,11.33,11.33,0,0,0-.77-5.22,11.45,11.45,0,0,0-3.62-4.82,10.76,10.76,0,0,0-2.85-1.62,10.63,10.63,0,0,0-3.33-.75A11.36,11.36,0,0,0,316.31,210a10.64,10.64,0,0,0-.79,3.33,10.76,10.76,0,0,0,.21,3.27,11.45,11.45,0,0,0,7.09,8.36,11.63,11.63,0,0,0,7.61.29C332.2,224.67,333.06,224.07,333.1,224.14Z"/><path class="cls-2" d="M335.22,239.68l.31.28.89.87L340,244.3l-.14,0,9.24-5.84-.07.2c-.66-1.89-1.4-4-2.2-6.23l0-.11.09-.09a26.43,26.43,0,0,0,4.08-5.77l.07-.12h6.74l-.23.19c.76-3.36,1.58-6.92,2.43-10.66l.15.3-6-2.86-.15-.07v-.17a26.28,26.28,0,0,0-1.17-7l0-.17.13-.12,4.68-4.66,0,.37-5.8-9.26.37.13-6.24,2.18-.18.06-.14-.13a26.79,26.79,0,0,0-5.74-4.09l-.17-.09v-.2c0-2.07,0-4.33,0-6.61l.26.33-10.66-2.46.38-.18c-.91,1.88-1.89,3.9-2.87,6l-.09.18h-.21a26.71,26.71,0,0,0-6.93,1.15h0l-.34-.08h0l0,0,0,0-.07-.07-.14-.15-.3-.3-.58-.59-1.17-1.17c-.77-.79-1.55-1.57-2.32-2.34l.42.05-9.28,5.78.14-.39c.73,2.1,1.46,4.18,2.17,6.24l.07.19-.14.15a26.47,26.47,0,0,0-4.09,5.72l-.09.18h-.2l-6.61,0,.31-.24q-1.26,5.44-2.47,10.64l-.17-.34,5.95,2.88.17.08v.18a26.26,26.26,0,0,0,1.15,7l.05.17-.13.12-4.69,4.64,0-.35c2,3.27,3.94,6.36,5.77,9.29l-.31-.11,6.25-2.15.13-.05.11.1a26.83,26.83,0,0,0,5.74,4.12l.12.06v.13c0,2.41,0,4.57-.05,6.61l-.16-.19,10.65,2.51-.17.08c1.16-2.37,2.11-4.31,2.91-5.93l0-.06h.06a27.92,27.92,0,0,0,5.32-.66l1.29-.31.43-.1a2.47,2.47,0,0,1-.42.16c-.28.09-.7.22-1.27.36a25.72,25.72,0,0,1-5.34.76l.09-.06-2.83,6-.05.11-.12,0-10.66-2.41-.16,0v-.16c0-2,0-4.21,0-6.61l.12.2a26.79,26.79,0,0,1-5.87-4.16l.25,0L302.73,236l-.19.07-.11-.18q-2.76-4.38-5.81-9.26l-.12-.19.16-.16,4.68-4.65-.07.29a26.93,26.93,0,0,1-1.19-7.11l.17.26-6-2.87-.22-.1.06-.25q1.19-5.19,2.45-10.65l.06-.25h.25l6.61,0-.29.17a27.2,27.2,0,0,1,4.19-5.88l-.07.34c-.72-2.06-1.44-4.14-2.18-6.24l-.09-.25.23-.14,9.27-5.79.23-.15.19.19,2.32,2.34,1.17,1.18.58.59.29.3.15.14.07.08,0,0,0,0h0c-.67-.17-.18-.05-.33-.09h0a27.25,27.25,0,0,1,7.11-1.18l-.29.19c1-2.05,2-4.08,2.88-6l.11-.25.27.06L340,183.19l.25.06v.27c0,2.28,0,4.54,0,6.61l-.18-.29a26.93,26.93,0,0,1,5.87,4.19l-.32-.07,6.24-2.17.24-.08.13.22,5.78,9.28.12.2-.17.17-4.69,4.64.07-.29a27,27,0,0,1,1.17,7.11l-.16-.24,5.95,2.88.19.1-.05.2c-.87,3.74-1.7,7.3-2.49,10.65l0,.19h-.19l-6.61,0,.2-.12a27.21,27.21,0,0,1-4.2,5.83l.05-.2,2.14,6.25.05.13-.12.07-9.3,5.74-.08,0-.06-.06-3.41-3.52-.87-.92A2.72,2.72,0,0,1,335.22,239.68Z"/><path class="cls-3" d="M357,160.57a37.81,37.81,0,0,1-9.94,1.66L343,170.64l-15.06-3.48,0-9.35a37.66,37.66,0,0,1-8.2-5.85L310.94,155l-8.19-13.11,6.64-6.58a37.75,37.75,0,0,1-1.66-9.94l-8.41-4.06,3.48-15.06,9.34,0A38,38,0,0,1,318,98.11l-3.08-8.82L328,81.1l6.57,6.64a37.89,37.89,0,0,1,9.95-1.66l4.06-8.41,15.06,3.48,0,9.35a38,38,0,0,1,8.2,5.85l8.82-3.07,8.19,13.11L382.22,113a37.8,37.8,0,0,1,1.65,9.94l8.42,4.07L388.8,142l-9.34,0a37.76,37.76,0,0,1-5.86,8.21l3.08,8.82-13.11,8.19L357,160.57Zm-3-22a16.59,16.59,0,1,0-22.85-5.29A16.58,16.58,0,0,0,354,138.6Z"/><path class="cls-4" d="M392.47,210.39a20.4,20.4,0,0,1-5.28.88L385,215.74l-8-1.85,0-5a19.76,19.76,0,0,1-4.36-3.12l-4.7,1.64-4.35-7,3.53-3.49a19.72,19.72,0,0,1-.88-5.29l-4.48-2.17,1.86-8,5,0a20.05,20.05,0,0,1,3.11-4.36l-1.63-4.69,7-4.36,3.5,3.53a20.13,20.13,0,0,1,5.29-.88l2.16-4.48,8,1.86,0,5a20.35,20.35,0,0,1,4.37,3.11l4.69-1.63,4.36,7-3.53,3.5a20.55,20.55,0,0,1,.88,5.29l4.47,2.16-1.85,8-5,0a20.06,20.06,0,0,1-3.12,4.37l1.64,4.69-7,4.36-3.5-3.53Zm-1.59-11.69a8.83,8.83,0,1,0-12.16-2.82A8.83,8.83,0,0,0,390.88,198.7Z"/><path class="cls-2" d="M85.61,121.9c.1.1-4.59,4.91-10.48,10.73S64.4,143.09,64.3,143s4.58-4.91,10.47-10.73S85.51,121.8,85.61,121.9Z"/><path class="cls-2" d="M85.66,142.93c-.1.11-5-4.51-10.89-10.3S64.14,122.05,64.25,122s5,4.51,10.88,10.31S85.76,142.83,85.66,142.93Z"/><path class="cls-2" d="M106.81,255c0,.15-6-.37-13.36-1.14s-13.32-1.53-13.31-1.67,6,.37,13.37,1.15S106.83,254.84,106.81,255Z"/><path class="cls-2" d="M105.75,265c0,.14-6-.37-13.36-1.15s-13.32-1.52-13.31-1.67,6,.38,13.37,1.15S105.77,264.89,105.75,265Z"/><path class="cls-5" d="M33.64,232.94s-7.92-.57-7.19,17.19S29,277.36,29,277.36s-.23,3.94-3.28,3.17-8.79-4.61-11.62-1.74-1.9,7.53,2,12.89,12,17.45,12.74,18.54,1,3.09-1.16,2.9S10.91,308,9,315.05s11.39,20.23,12.81,21.7,1.51,2.4.93,3.28-5.33-1.23-9.54-2.47-9.3-1.93-10.08,2.24S8.2,356.17,30.17,369l10.56,5.28,10-6.38c20.58-15,25.19-27.69,24-31.77s-6.18-2.87-10.25-1.21-8.58,4.24-9.24,3.41-.68-1.75.59-3.36,13.21-16,10.58-22.88-16.66-.45-18.79,0-2.05-1.63-1.44-2.77,7.48-14,10.82-19.72,3.93-10.37.7-13-8.43,1.82-11.39,2.89-3.58-2.82-3.58-2.82.86-9.6-.2-27.34-9.06-16.32-9.06-16.32"/><path class="cls-2" d="M34.27,248.85s0,.13,0,.37,0,.63.08,1.09c.07,1,.17,2.39.29,4.2.24,3.64.55,8.91.91,15.43.73,13,1.57,31.06,2.44,51s1.67,37.93,2.33,51c.33,6.5.59,11.77.78,15.44.09,1.81.16,3.22.21,4.2,0,.46,0,.83,0,1.09s0,.37,0,.37a2.55,2.55,0,0,1,0-.37c0-.26-.05-.62-.08-1.09-.07-1-.16-2.39-.29-4.19-.24-3.64-.55-8.92-.91-15.44-.72-13-1.57-31.05-2.44-51S36,283,35.31,270c-.33-6.51-.6-11.78-.79-15.44-.09-1.81-.16-3.22-.21-4.2,0-.47,0-.83,0-1.1A3.49,3.49,0,0,1,34.27,248.85Z"/><path class="cls-2" d="M21.9,284.47a3.81,3.81,0,0,1,.66.55c.4.37,1,.92,1.67,1.61,1.4,1.38,3.27,3.34,5.3,5.54l5.17,5.66,1.58,1.7a3.41,3.41,0,0,1,.55.66,3.61,3.61,0,0,1-.67-.55c-.4-.37-1-.92-1.67-1.62-1.38-1.39-3.23-3.37-5.25-5.58L24,286.83l-1.59-1.7A3.4,3.4,0,0,1,21.9,284.47Z"/><path class="cls-2" d="M37.87,299.84c-.08-.08,3.79-4.13,8.64-9S55.35,282,55.43,282s-3.79,4.13-8.64,9S38,299.92,37.87,299.84Z"/><path class="cls-2" d="M37.83,330.47a3.06,3.06,0,0,1,.74-.47l2.06-1.16c1.75-1,4.15-2.35,6.75-3.94s4.91-3.12,6.58-4.23l2-1.32a4.06,4.06,0,0,1,.75-.44,3.82,3.82,0,0,1-.66.57c-.44.35-1.09.84-1.9,1.42-1.62,1.18-3.91,2.74-6.53,4.34s-5,2.93-6.82,3.85c-.89.45-1.62.81-2.13,1.05A4.6,4.6,0,0,1,37.83,330.47Z"/><path class="cls-2" d="M20.32,319.75a2.69,2.69,0,0,1,.73.34c.46.24,1.11.61,1.92,1.06,1.61.92,3.82,2.21,6.24,3.65s4.62,2.77,6.19,3.75c.78.48,1.41.89,1.85,1.17a3.82,3.82,0,0,1,.65.48,3.14,3.14,0,0,1-.73-.34l-1.92-1.07c-1.61-.91-3.82-2.2-6.24-3.64s-4.62-2.77-6.19-3.75L21,320.23A3.82,3.82,0,0,1,20.32,319.75Z"/><path class="cls-2" d="M16.85,346.78a6.15,6.15,0,0,1,.93.45l2.46,1.36c2.07,1.16,4.91,2.79,8,4.61s5.95,3.48,8,4.71l2.39,1.47a5,5,0,0,1,.85.58,5.1,5.1,0,0,1-.93-.45l-2.46-1.35c-2.07-1.17-4.91-2.79-8-4.61s-5.94-3.49-8-4.72l-2.39-1.46A5.32,5.32,0,0,1,16.85,346.78Z"/><path class="cls-2" d="M39.05,359.49a6.14,6.14,0,0,1,.92-.61l2.57-1.57c2.17-1.32,5.15-3.15,8.4-5.27s6.13-4.1,8.22-5.55l2.47-1.71a6,6,0,0,1,.93-.6,4.77,4.77,0,0,1-.84.72c-.56.44-1.37,1.07-2.4,1.82-2,1.52-4.91,3.55-8.16,5.66s-6.27,3.92-8.48,5.18c-1.1.63-2,1.13-2.63,1.46A5,5,0,0,1,39.05,359.49Z"/><polygon class="cls-2" points="54.93 377.73 25.69 377.73 35.24 449.98 45.39 449.98 54.93 377.73"/><path class="cls-6" d="M27.21,386.61s0,.11.16.26a1.83,1.83,0,0,0,.7.51,3.57,3.57,0,0,0,3.09-.38c1.18-.65,2.21-1.93,3.79-2.5a8.29,8.29,0,0,1,5.38.11,23.53,23.53,0,0,1,5,2.42,33.57,33.57,0,0,0,4.07,2.19,11.47,11.47,0,0,0,3,.87,4.74,4.74,0,0,0,.85.05c.19,0,.3,0,.3,0a15.28,15.28,0,0,1-4-1.21,40.7,40.7,0,0,1-4-2.25,21.76,21.76,0,0,0-5.09-2.51,8.56,8.56,0,0,0-5.67-.06,7.32,7.32,0,0,0-2.14,1.32,16.67,16.67,0,0,1-1.67,1.3,3.43,3.43,0,0,1-2.85.49A2.79,2.79,0,0,1,27.21,386.61Z"/><path class="cls-6" d="M28.28,399.92s.23-.3.69-.78a6.45,6.45,0,0,1,2.33-1.48,10.45,10.45,0,0,1,4.07-.61,45.53,45.53,0,0,1,5.09.69,17.47,17.47,0,0,0,5.21.22,14.67,14.67,0,0,0,4.1-1.17,13.37,13.37,0,0,0,2.46-1.47,3.12,3.12,0,0,0,.78-.7,25.81,25.81,0,0,1-3.38,1.86,14.88,14.88,0,0,1-4,1,17.77,17.77,0,0,1-5.08-.25,38.25,38.25,0,0,0-5.15-.66,10.38,10.38,0,0,0-4.2.74A6.17,6.17,0,0,0,28.83,399a4.36,4.36,0,0,0-.44.65C28.3,399.83,28.26,399.91,28.28,399.92Z"/><path class="cls-6" d="M51.62,407a2.68,2.68,0,0,0-.8-.42,9.14,9.14,0,0,0-2.43-.52,15.91,15.91,0,0,0-3.66.21c-1.36.23-2.83.6-4.36.93a18.61,18.61,0,0,1-4.36.49,9.46,9.46,0,0,1-3.45-.75,8,8,0,0,1-2.62-2,2.16,2.16,0,0,0,.49.76,6.15,6.15,0,0,0,2,1.5,9.31,9.31,0,0,0,3.57.88,17.8,17.8,0,0,0,4.48-.47c1.55-.33,3-.71,4.33-.95a16.35,16.35,0,0,1,3.57-.31A13.66,13.66,0,0,1,51.62,407Z"/><path class="cls-6" d="M30.86,417.06a4.79,4.79,0,0,1,2.84-.28,13.43,13.43,0,0,1,3,1.1A11.14,11.14,0,0,0,40.53,419a11.59,11.59,0,0,0,7-1.63A9.85,9.85,0,0,0,49.26,416a2.82,2.82,0,0,0,.52-.62A28.21,28.21,0,0,1,47.35,417a11.9,11.9,0,0,1-6.78,1.44c-2.77-.16-4.89-1.81-6.81-2a4.45,4.45,0,0,0-2.21.19A1.55,1.55,0,0,0,30.86,417.06Z"/><path class="cls-6" d="M32.49,430.93a5.64,5.64,0,0,0,2.44-.49c1.47-.49,3.29-1.61,5.41-2.46a8.89,8.89,0,0,1,3.11-.65,5.8,5.8,0,0,1,2.5.57,5.45,5.45,0,0,1,1.8,1.56,1.27,1.27,0,0,0-.27-.62,4.25,4.25,0,0,0-1.37-1.24,5.78,5.78,0,0,0-2.65-.71,8.6,8.6,0,0,0-3.29.65c-2.2.87-4,2-5.36,2.59S32.48,430.85,32.49,430.93Z"/><path class="cls-6" d="M33.92,437.38a7.06,7.06,0,0,0,1.86.6,33.21,33.21,0,0,0,4.62.78,34.59,34.59,0,0,0,4.7.14,7,7,0,0,0,1.93-.23c0-.15-3,0-6.58-.38S34,437.24,33.92,437.38Z"/></g><g id="Floor"><path class="cls-7" d="M444.51,448.81c0,.15-99.51.26-222.24.26S0,449,0,448.81s99.49-.26,222.27-.26S444.51,448.67,444.51,448.81Z"/></g><g id="Character"><path class="cls-8" d="M111.13,131s2.72-16.31,3.37-17.56,8.17-8.86,9-9,12.74-3.88,12.08-2-9,4.35-9,4.35l-.79,1s7.1-2.31,8.87-2.25c1.62,0,1.91,1.74.64,2.23s-7.53,2.31-7.76,2.7,7-1.67,7.87-1.63c1.22.05,2.1,1.59.86,2.12-.73.31-7.7,1.9-7.7,1.9a60.87,60.87,0,0,1,6.47-.5c1.07.29,1,1.59-.2,1.9-.81.22-5.06.4-6.14.69,0,0-.8.69-.78,2.84s-2.77,7.89-2.77,7.89Z"/><path class="cls-9" d="M135.62,102.39a5.86,5.86,0,0,1-1.74,1.51,12.85,12.85,0,0,1-2.22,1.22c-.88.33-1.86.67-2.88,1l-2.19.74.12-.08a33.87,33.87,0,0,1-4,3.76,34.55,34.55,0,0,1,3.67-4.11l0,0,.07,0,2.16-.76,2.88-1a17.4,17.4,0,0,0,2.2-1.08C134.89,102.88,135.57,102.33,135.62,102.39Z"/><path class="cls-10" d="M292.36,310.75,130.94,294.12a9,9,0,0,1-8-9.86l28-271.38a12.76,12.76,0,0,1,14-11.39L318.79,17.35a12.76,12.76,0,0,1,11.39,14l-28,271.38A9,9,0,0,1,292.36,310.75Z"/><path class="cls-11" d="M292.33,310.73,130.91,294.1a9,9,0,0,1-8-9.86l28-271.38a12.75,12.75,0,0,1,14-11.39l153.9,15.85a12.77,12.77,0,0,1,11.39,14l-28,271.38A9,9,0,0,1,292.33,310.73Z"/><path class="cls-12" d="M276.14,309.33,114.71,292.7a9,9,0,0,1-8-9.86l28-271.38a12.78,12.78,0,0,1,14-11.39l153.9,15.85a12.76,12.76,0,0,1,11.39,14L286,301.31A9,9,0,0,1,276.14,309.33Z"/><rect class="cls-10" x="133.3" y="233.96" width="60.8" height="26.86" rx="2.42" transform="translate(26.21 -15.47) rotate(5.88)"/><g class="cls-13"><rect x="133.3" y="233.96" width="60.8" height="26.86" rx="2.42" transform="translate(26.21 -15.47) rotate(5.88)"/></g><rect class="cls-14" x="189.22" y="-8.68" width="60.45" height="154.1" transform="translate(128.95 279.65) rotate(-84.12)"/><path class="cls-7" d="M293,106.33s0-.37.1-1.07.16-1.76.3-3.12c.27-2.73.67-6.76,1.18-11.94,1.05-10.37,2.56-25.39,4.44-44l.16.2L145.88,30.67h0l.28-.24c-2.17,21-4.26,41.35-6.2,60.13l-.22-.27,109.85,11.43,31.9,3.36L290,106l2.21.25.76.09-.73-.06-2.18-.21-8.5-.84L249.72,102l-110-11.21-.25,0,0-.25c1.93-18.78,4-39.1,6.19-60.13l0-.26.26,0h0L299.21,46l.18,0,0,.18c-2,18.67-3.55,33.71-4.64,44.1-.56,5.17-1,9.17-1.28,11.9-.14,1.35-.25,2.37-.33,3.08S293,106.33,293,106.33Z"/><rect class="cls-15" x="144.39" y="116.67" width="26.19" height="26.19" rx="2.08" transform="translate(14.13 -15.46) rotate(5.88)"/><g class="cls-13"><rect x="144.39" y="116.67" width="26.19" height="26.19" rx="2.08" transform="translate(14.13 -15.46) rotate(5.88)"/></g><rect class="cls-7" x="140.36" y="116.26" width="26.19" height="26.19" rx="2.08" transform="translate(14.06 -15.04) rotate(5.88)"/><path class="cls-16" d="M155.87,124l-1.12,10.86-2.51-.26.91-8.84-2.17-.22.21-2Z"/><rect class="cls-10" x="180.72" y="120.41" width="26.19" height="26.19" rx="2.08" transform="translate(14.7 -19.16) rotate(5.88)"/><g class="cls-13"><rect x="180.72" y="120.41" width="26.19" height="26.19" rx="2.08" transform="translate(14.7 -19.16) rotate(5.88)"/></g><rect class="cls-7" x="176.7" y="120" width="26.19" height="26.19" rx="2.08" transform="translate(14.64 -18.75) rotate(5.88)"/><path class="cls-16" d="M195.22,137,195,139l-8.21-.85.17-1.62,4.6-3.53c1.05-.81,1.28-1.36,1.34-1.88.08-.86-.45-1.41-1.6-1.53a2.66,2.66,0,0,0-2.36.85l-1.71-1.37a5.09,5.09,0,0,1,4.52-1.57c2.42.25,3.9,1.66,3.7,3.63-.11,1.05-.5,2-2.17,3.24l-2.74,2.1Z"/><rect class="cls-10" x="218.39" y="124.29" width="26.19" height="26.19" rx="2.08" transform="translate(15.3 -23) rotate(5.88)"/><g class="cls-13"><rect x="218.39" y="124.29" width="26.19" height="26.19" rx="2.08" transform="translate(15.3 -23) rotate(5.88)"/></g><rect class="cls-7" x="214.36" y="123.88" width="26.19" height="26.19" rx="2.08" transform="translate(15.23 -22.59) rotate(5.88)"/><path class="cls-16" d="M232.93,139.55c-.19,1.83-1.78,3.36-4.86,3a7.44,7.44,0,0,1-4-1.59l1.18-1.82a5.3,5.3,0,0,0,3,1.3c1.26.13,2.09-.31,2.18-1.19s-.47-1.4-1.9-1.54l-1.15-.12.17-1.66,2.5-2.3-4.62-.48.2-2,7.61.78-.17,1.63-2.74,2.54A3.11,3.11,0,0,1,232.93,139.55Z"/><rect class="cls-10" x="256.05" y="128.17" width="26.19" height="26.19" rx="2.08" transform="translate(15.89 -26.84) rotate(5.88)"/><g class="cls-13"><rect x="256.05" y="128.17" width="26.19" height="26.19" rx="2.08" transform="translate(15.89 -26.84) rotate(5.88)"/></g><rect class="cls-7" x="252.12" y="127.76" width="26.19" height="26.19" rx="2.08" transform="translate(15.83 -26.44) rotate(5.88)"/><rect class="cls-16" x="264.6" y="134.58" width="1" height="11.7" transform="translate(98.25 389.74) rotate(-84.12)"/><path class="cls-16" d="M267.51,135.55a1.9,1.9,0,1,1-1.69-2.08A1.89,1.89,0,0,1,267.51,135.55Z"/><path class="cls-16" d="M266.47,145.69a1.89,1.89,0,1,1-1.69-2.08A1.9,1.9,0,0,1,266.47,145.69Z"/><rect class="cls-15" x="140.46" y="154.84" width="26.19" height="26.19" rx="2.08" transform="translate(18.02 -14.85) rotate(5.88)"/><g class="cls-13"><rect x="140.46" y="154.84" width="26.19" height="26.19" rx="2.08" transform="translate(18.02 -14.85) rotate(5.88)"/></g><rect class="cls-7" x="136.43" y="154.43" width="26.19" height="26.19" rx="2.08" transform="translate(17.95 -14.44) rotate(5.88)"/><path class="cls-16" d="M154.23,171.07l-1.77-.18-.24,2.28-2.45-.26.24-2.28-5.85-.6.17-1.69,5.83-6.36,2.64.27-5.42,6,2.91.3.21-2,2.38.25-.21,2,1.77.18Z"/><rect class="cls-10" x="176.79" y="158.58" width="26.19" height="26.19" rx="2.08" transform="translate(18.59 -18.56) rotate(5.88)"/><rect class="cls-7" x="172.77" y="158.17" width="26.19" height="26.19" rx="2.08" transform="translate(18.53 -18.14) rotate(5.88)"/><path class="cls-16" d="M190.23,173.63c-.2,1.93-1.78,3.46-4.88,3.14a7.62,7.62,0,0,1-4-1.59l1.2-1.82a5.27,5.27,0,0,0,3,1.29c1.26.13,2.09-.32,2.18-1.2s-.42-1.47-2.39-1.67l-2.77-.29,1.19-6.05,6.62.68-.21,2-4.53-.46-.38,2,.88.09C189.31,170.14,190.43,171.71,190.23,173.63Z"/><rect class="cls-10" x="214.46" y="162.46" width="26.19" height="26.19" rx="2.08" transform="translate(19.19 -22.39) rotate(5.88)"/><g class="cls-13"><rect x="214.46" y="162.46" width="26.19" height="26.19" rx="2.08" transform="translate(19.19 -22.39) rotate(5.88)"/></g><rect class="cls-7" x="210.43" y="162.05" width="26.19" height="26.19" rx="2.08" transform="translate(19.12 -21.98) rotate(5.88)"/><path class="cls-16" d="M228.66,177.58c-.23,2.21-2.19,3.42-4.48,3.19-3-.31-4.67-2.38-4.3-5.89.38-3.75,2.86-5.61,6.14-5.27a5.8,5.8,0,0,1,2.94,1l-1.12,1.75a3.64,3.64,0,0,0-2-.75c-1.82-.19-3.09.76-3.38,2.83a3.67,3.67,0,0,1,2.78-.68A3.46,3.46,0,0,1,228.66,177.58Zm-2.45-.13a1.65,1.65,0,0,0-1.68-1.82,1.7,1.7,0,0,0-2,1.44c-.1.93.53,1.68,1.74,1.81A1.63,1.63,0,0,0,226.21,177.45Z"/><rect class="cls-10" x="252.12" y="166.34" width="26.19" height="26.19" rx="2.08" transform="translate(19.78 -26.23) rotate(5.88)"/><g class="cls-13"><rect x="252.12" y="166.34" width="26.19" height="26.19" rx="2.08" transform="translate(19.78 -26.23) rotate(5.88)"/></g><rect class="cls-7" x="248.1" y="165.93" width="26.19" height="26.19" rx="2.08" transform="translate(19.72 -25.82) rotate(5.88)"/><rect class="cls-16" x="255.35" y="178.53" width="11.7" height="1" transform="translate(-54.76 200.19) rotate(-38.26)"/><rect class="cls-16" x="260.7" y="173.18" width="1" height="11.7" transform="translate(-54.4 204.96) rotate(-39.12)"/><rect class="cls-15" x="136.56" y="192.7" width="26.19" height="26.19" rx="2.08" transform="translate(21.88 -14.25) rotate(5.88)"/><g class="cls-13"><rect x="136.56" y="192.7" width="26.19" height="26.19" rx="2.08" transform="translate(21.88 -14.25) rotate(5.88)"/></g><rect class="cls-7" x="132.53" y="192.28" width="26.19" height="26.19" rx="2.08" transform="translate(21.81 -13.84) rotate(5.88)"/><path class="cls-16" d="M149.77,200.2l-.17,1.63-5,8.81-2.73-.28,4.8-8.41-3.59-.37-.19,1.77-2.23-.23.39-3.82Z"/><rect class="cls-10" x="172.89" y="196.44" width="26.19" height="26.19" rx="2.08" transform="translate(22.45 -17.96) rotate(5.88)"/><g class="cls-13"><rect x="172.88" y="196.46" width="26.19" height="26.19" rx="2.08" transform="translate(22.45 -17.95) rotate(5.88)"/></g><rect class="cls-7" x="168.87" y="196.03" width="26.19" height="26.19" rx="2.08" transform="translate(22.39 -17.55) rotate(5.88)"/><path class="cls-16" d="M187.19,211.85c-.21,2-2.18,3.14-4.94,2.86S177.82,213,178,210.9a2.76,2.76,0,0,1,1.9-2.39,2.52,2.52,0,0,1-1-2.36c.19-1.91,2-2.93,4.49-2.67s4.08,1.62,3.88,3.53a2.52,2.52,0,0,1-1.5,2.1A2.78,2.78,0,0,1,187.19,211.85Zm-2.54-.34c.1-1-.63-1.64-1.89-1.77s-2.07.39-2.17,1.35.61,1.64,1.85,1.77S184.55,212.47,184.65,211.51Zm-3.25-5c-.08.82.52,1.4,1.54,1.5s1.76-.33,1.84-1.16-.54-1.43-1.56-1.54S181.49,205.66,181.4,206.52Z"/><rect class="cls-10" x="210.55" y="200.32" width="26.19" height="26.19" rx="2.08" transform="translate(23.05 -21.8) rotate(5.88)"/><g class="cls-13"><rect x="210.55" y="200.32" width="26.19" height="26.19" rx="2.08" transform="translate(23.05 -21.8) rotate(5.88)"/></g><rect class="cls-7" x="206.53" y="199.91" width="26.19" height="26.19" rx="2.08" transform="translate(22.98 -21.38) rotate(5.88)"/><path class="cls-16" d="M224.69,213.17c-.38,3.75-2.85,5.62-6.14,5.28a5.86,5.86,0,0,1-2.93-1.06l1.12-1.75a3.52,3.52,0,0,0,2,.76c1.8.18,3.09-.77,3.38-2.85a3.72,3.72,0,0,1-2.8.69,3.46,3.46,0,0,1-3.39-3.76c.23-2.22,2.19-3.43,4.48-3.19C223.4,207.6,225.06,209.66,224.69,213.17ZM222.08,211c.1-.93-.53-1.69-1.73-1.81a1.63,1.63,0,0,0-2,1.43,1.66,1.66,0,0,0,1.68,1.82A1.7,1.7,0,0,0,222.08,211Z"/><rect class="cls-10" x="248.22" y="204.2" width="26.19" height="26.19" rx="2.08" transform="translate(23.64 -25.63) rotate(5.88)"/><g class="cls-13"><rect x="248.22" y="204.2" width="26.19" height="26.19" rx="2.08" transform="translate(23.64 -25.63) rotate(5.88)"/></g><rect class="cls-7" x="244.2" y="203.79" width="26.19" height="26.19" rx="2.08" transform="translate(23.58 -25.22) rotate(5.88)"/><rect class="cls-16" x="256.79" y="211.04" width="1" height="11.7" transform="translate(15.2 450.62) rotate(-84.12)"/><rect class="cls-10" x="206.62" y="238.51" width="26.19" height="26.19" rx="2.08" transform="translate(26.94 -21.19) rotate(5.88)"/><g class="cls-13"><rect x="206.62" y="238.51" width="26.19" height="26.19" rx="2.08" transform="translate(26.94 -21.19) rotate(5.88)"/></g><rect class="cls-7" x="202.6" y="238.1" width="26.19" height="26.19" rx="2.08" transform="translate(26.88 -20.78) rotate(5.88)"/><rect class="cls-10" x="243.95" y="243.2" width="26.19" height="26.19" rx="2.08" transform="translate(27.62 -24.99) rotate(5.88)"/><g class="cls-13"><rect x="243.95" y="243.2" width="26.19" height="26.19" rx="2.08" transform="translate(27.62 -24.99) rotate(5.88)"/></g><rect class="cls-17" x="239.92" y="242.79" width="26.19" height="26.19" rx="2.08" transform="translate(27.55 -24.58) rotate(5.88)"/><rect class="cls-16" x="252.67" y="248.6" width="1" height="11.7" transform="translate(-25.86 480.24) rotate(-84.12)"/><rect class="cls-16" x="252.21" y="253.03" width="1" height="11.7" transform="translate(-30.67 483.76) rotate(-84.12)"/><rect class="cls-7" x="127.13" y="231.9" width="63.23" height="26.86" rx="2.5" transform="translate(25.98 -14.98) rotate(5.88)"/><path class="cls-16" d="M156.41,244.56c.37-3.58,2.56-5.41,5.23-5.13s4.45,2.51,4.08,6.09-2.55,5.42-5.24,5.14S156,248.15,156.41,244.56Zm6.78.7c.25-2.46-.51-3.58-1.77-3.71s-2.21.81-2.47,3.28.51,3.58,1.75,3.7S162.94,247.73,163.19,245.26Z"/><rect class="cls-16" x="209.85" y="250.69" width="11.7" height="1" transform="translate(-59.05 435.96) rotate(-83.27)"/><rect class="cls-16" x="215.19" y="245.35" width="1" height="11.7" transform="translate(-56.27 440.02) rotate(-84.12)"/><path class="cls-7" d="M204.49,67.12l-1.68,16.24-.76-.08,1.6-15.52-4.09-.42.08-.72Z"/><path class="cls-7" d="M217.82,84.18l-.07.72-11-1.14.06-.55,7.68-6.29c2.2-1.79,2.74-2.93,2.88-4.25.22-2.16-1.14-3.71-4-4a6,6,0,0,0-5.08,1.45l-.48-.57A6.91,6.91,0,0,1,213.49,68c3.11.32,4.92,2.12,4.65,4.74-.16,1.53-.79,2.83-3.14,4.74l-7,5.73Z"/><path class="cls-7" d="M230.69,81.68c-.28,2.69-2.38,4.4-5.95,4a7.32,7.32,0,0,1-5.4-2.83l.47-.51a6.77,6.77,0,0,0,5,2.62c3.11.32,4.89-1,5.13-3.39s-1.18-4-4.61-4.39l-.9-.09.05-.56,5.74-6.06-8.95-.92.07-.72,10,1,0,.56-5.76,6.09C229.28,76.92,231,79,230.69,81.68Z"/><path class="cls-7" d="M246.66,83.14l-3.52-.36-.49,4.68-.76-.08.48-4.68-9.32-1,0-.56,10.11-10.07.91.1-10,9.94,8.3.85.43-4.13.76.08-.42,4.13,3.52.36Z"/><path class="cls-7" d="M250.05,87.52a4.78,4.78,0,0,1-.22.84l-1.16,3-.6-.07,1.05-3.12a.78.78,0,0,1-.6-.84.77.77,0,0,1,1.53.16Z"/><path class="cls-7" d="M266.14,85.15l-3.52-.37-.49,4.69-.76-.08.48-4.69-9.32-1,.05-.55,10.11-10.07.91.09-10,9.94,8.3.86.43-4.13.76.08-.42,4.13,3.52.36Z"/><path class="cls-7" d="M278.19,86.48c-.27,2.65-2.31,4.5-6,4.12a7.37,7.37,0,0,1-5.38-2.83l.5-.51a6.7,6.7,0,0,0,4.95,2.62c3.18.33,4.91-1.18,5.14-3.48.26-2.5-1.07-4.14-5.71-4.62l-3.15-.32,1.64-7.57,8.38.86-.08.72-7.72-.79-1.34,6.14,2.51.26C276.89,81.59,278.49,83.61,278.19,86.48Z"/><polygon class="cls-15" points="101.89 418.16 95.54 441.67 116.2 443.56 120.54 421.18 101.89 418.16"/><path class="cls-7" d="M116.8,441.64a14.35,14.35,0,0,1-3-.1c-1.86-.15-4.42-.43-7.25-.8l-7.22-1a17.88,17.88,0,0,1-3-.51,14,14,0,0,1,3,.11c1.86.15,4.42.44,7.25.8l7.22,1A17.61,17.61,0,0,1,116.8,441.64Z"/><g class="cls-18"><polyline class="cls-16" points="95.54 441.67 116.2 443.56 116.53 441.83 96.13 439.24 95.56 441.44"/></g><path class="cls-7" d="M105.8,440.63a86.49,86.49,0,0,1,2-9,86.54,86.54,0,0,1,2.43-8.89,88.67,88.67,0,0,1-2,9A88.69,88.69,0,0,1,105.8,440.63Z"/><path class="cls-7" d="M115.66,441.49a10,10,0,0,0,0-4.37,8.74,8.74,0,0,0-2.27-4.09,8.45,8.45,0,0,0-5.14-2.36,8.78,8.78,0,0,0-5.53,1.25,9.57,9.57,0,0,0-3.22,3.42,11.84,11.84,0,0,0-1.3,4.2s0-.11,0-.32a5,5,0,0,1,0-.89,9.43,9.43,0,0,1,1-3.15,9.55,9.55,0,0,1,3.28-3.63,9.06,9.06,0,0,1,5.82-1.37,8.52,8.52,0,0,1,7.69,6.87,8.21,8.21,0,0,1,0,3.3,4.79,4.79,0,0,1-.26.86A1,1,0,0,1,115.66,441.49Z"/><path class="cls-15" d="M187.14,415.49,185.91,434s18.43,6.11,18.53,9.56l-36,.26.73-28.93Z"/><g class="cls-18"><path class="cls-16" d="M174.83,432.1a1.48,1.48,0,0,0-1.07,1.65,1.42,1.42,0,0,0,1.63,1.07,1.56,1.56,0,0,0,1.12-1.75,1.47,1.47,0,0,0-1.81-.93"/></g><g class="cls-18"><path class="cls-16" d="M168.44,443.82l.19-2.91,34.66.95a2.51,2.51,0,0,1,1.34,2Z"/></g><path class="cls-7" d="M186.5,433.83c0,.18-.89.23-1.77.77s-1.37,1.26-1.53,1.19.13-1.08,1.21-1.72S186.54,433.67,186.5,433.83Z"/><path class="cls-7" d="M190.23,435.51c0,.17-.74.45-1.36,1.17s-.81,1.51-1,1.49-.25-1,.53-1.89S190.23,435.34,190.23,435.51Z"/><path class="cls-7" d="M192.23,440.09c-.16,0-.38-.85.1-1.8s1.32-1.31,1.39-1.16-.46.65-.84,1.43S192.41,440.08,192.23,440.09Z"/><path class="cls-7" d="M186.31,429.58c-.08.16-.88-.11-1.87-.07s-1.78.33-1.87.18.68-.76,1.85-.79S186.4,429.45,186.31,429.58Z"/><g class="cls-19"><polygon points="186.89 419.15 186.68 422.45 169 421.76 169.06 418.78 186.89 419.15"/></g><path class="cls-7" d="M186.49,425.84a3.31,3.31,0,0,1-1.8-.06,7.69,7.69,0,0,1-1.87-.64,7.55,7.55,0,0,1-1-.58,2.2,2.2,0,0,1-.53-.44.75.75,0,0,1-.05-.93,1,1,0,0,1,.78-.38,2.46,2.46,0,0,1,.67.11,6.91,6.91,0,0,1,1.11.42,6.3,6.3,0,0,1,1.63,1.14c.81.8,1.08,1.46,1,1.5s-.48-.51-1.31-1.17a7,7,0,0,0-1.58-1,6.11,6.11,0,0,0-1-.35c-.38-.11-.7-.12-.81,0s0,.09,0,.21a2,2,0,0,0,.39.32,8.64,8.64,0,0,0,.93.57,10.18,10.18,0,0,0,1.73.72A13.66,13.66,0,0,1,186.49,425.84Z"/><path class="cls-7" d="M186.25,426.09a3,3,0,0,1-.42-1.76,5.92,5.92,0,0,1,.31-2,5.73,5.73,0,0,1,.49-1.08,1.49,1.49,0,0,1,1.17-.88.85.85,0,0,1,.74.53,2.79,2.79,0,0,1,.17.66,4.1,4.1,0,0,1,0,1.22,4.18,4.18,0,0,1-.82,1.84c-.74.91-1.48,1.1-1.49,1s.57-.41,1.13-1.29a4,4,0,0,0,.62-1.68,3.3,3.3,0,0,0,0-1c0-.39-.18-.7-.32-.67s-.49.28-.65.58a5.67,5.67,0,0,0-.47,1,6.25,6.25,0,0,0-.41,1.79C186.18,425.4,186.35,426.07,186.25,426.09Z"/><path class="cls-17" d="M109.08,127.13s-3.9,21.31-7,34.2c-2.43,10-8.74,28.77,2.67,34.22S131.46,179,131.46,179L138,128.87c-4.54.85-9.68,6.11-15.14,13.84l1-19Z"/><path class="cls-8" d="M266.1,158.6l-6,2.86-5.53-8.66,3.23-6.69c.31-.62.64-1.32,1-2.12a9,9,0,0,0,.71-2.94,14,14,0,0,0-.09-3.77c-.3-1.12.88-2,1.68-1.38s1.7,3.71,1.11,7.39,3.69-.22,5.28-1.62,6.7-5.48,7.51-5.32c1.17.23,1.14,1.57-.48,2.93s-6.19,5.77-5.44,6.59h0a4.52,4.52,0,0,1,3.92,3.5c.41,1.82.74,4.32-.28,5.15A59.44,59.44,0,0,1,266.1,158.6Z"/><path class="cls-8" d="M149.76,77.78l-.16,52.11L172,131l.65-12.68s7.94,1.58,10-5.8c1.31-4.71,1-41.12,1-41.12Z"/><path class="cls-7" d="M188.62,76.5c-1.51,3.12-8.68,8.82-8.68,8.82L176.7,94c-2.81-2.21-6.59-2.08-7.3,2.86-.52,3.58,3.92,4.3,3.92,4.3-2.58,4.4-4.34,8-8.1,12.15-4.08,4.53-6.36,5-10.78,5.06h-4.88s-10-8.34-8-30.28,21.71-15.55,26.42-21C175.65,58.12,193.65,66.11,188.62,76.5Z"/><path class="cls-17" d="M142.67,106.44h.62a9.53,9.53,0,0,0,1.77-.21,12.6,12.6,0,0,0,5.73-3,32,32,0,0,0,5.81-7.77,56.34,56.34,0,0,1,3.13-4.84,18.44,18.44,0,0,1,4.39-4.38,18.14,18.14,0,0,1,5.7-2.43c1.94-.5,3.85-.81,5.65-1.16,3.6-.66,6.83-1.67,9-3.38A9.69,9.69,0,0,0,188.15,74a7.59,7.59,0,0,0,.22-1.76c0-.41,0-.62,0-.62l.06.62a6.8,6.8,0,0,1-.18,1.78,9.75,9.75,0,0,1-3.64,5.38c-2.22,1.75-5.48,2.77-9.08,3.45-1.81.35-3.71.67-5.64,1.17a17.86,17.86,0,0,0-5.63,2.41,18.59,18.59,0,0,0-4.35,4.32c-1.19,1.6-2.18,3.25-3.13,4.82a31.62,31.62,0,0,1-5.87,7.78,12.49,12.49,0,0,1-5.81,3,9.14,9.14,0,0,1-1.79.17Z"/><path class="cls-17" d="M141.52,88.58l1-.36a14.77,14.77,0,0,1,3.06-.73,6.93,6.93,0,0,1,4.79,1,4,4,0,0,1,1.72,2.55,3.61,3.61,0,0,1-1,3.27,2.76,2.76,0,0,1-1.75.7,3.63,3.63,0,0,1-1.91-.51,5.74,5.74,0,0,1-2.56-3.23,8.08,8.08,0,0,1-.19-4.45,7.69,7.69,0,0,1,2.41-4,8,8,0,0,1,4.51-2,13.74,13.74,0,0,1,5.14.66A34.45,34.45,0,0,0,162,82.72a20.94,20.94,0,0,0,5.48,0,18.08,18.08,0,0,0,5.27-1.46,6.23,6.23,0,0,0,3.54-3.7,4.83,4.83,0,0,0-1.18-4.69,4.12,4.12,0,0,0-4.51-.67,3.45,3.45,0,0,0-1.67,1.57,3.74,3.74,0,0,0-.36,2.2,5.12,5.12,0,0,0,2.28,3.59,7.48,7.48,0,0,0,3.9,1.09,11.42,11.42,0,0,0,3.75-.56A13.55,13.55,0,0,0,184,76.72a14.27,14.27,0,0,0,2.87-4,14.69,14.69,0,0,0,1-3c.14-.71.22-1.08.22-1.08s-.06.38-.18,1.09a14.76,14.76,0,0,1-1,3,14.28,14.28,0,0,1-2.85,4.06,13.61,13.61,0,0,1-5.59,3.44,11.46,11.46,0,0,1-3.8.58,7.5,7.5,0,0,1-4-1.11,5.28,5.28,0,0,1-2.36-3.7,3.91,3.91,0,0,1,.37-2.32A3.62,3.62,0,0,1,170.5,72a4.31,4.31,0,0,1,4.73.7,5,5,0,0,1,1.23,4.89,6.4,6.4,0,0,1-3.64,3.83,18.27,18.27,0,0,1-5.33,1.48,21,21,0,0,1-5.54,0,35.48,35.48,0,0,1-5.22-1.25,13.61,13.61,0,0,0-5.06-.66,7.79,7.79,0,0,0-6.58,10.24,5.53,5.53,0,0,0,2.47,3.15,3.45,3.45,0,0,0,1.82.5,2.67,2.67,0,0,0,1.66-.66,3.48,3.48,0,0,0,1-3.13,3.9,3.9,0,0,0-1.65-2.49,6.88,6.88,0,0,0-4.72-1.05,15.42,15.42,0,0,0-3.06.69Z"/><polygon class="cls-7" points="126.78 230.44 97.02 425.92 121.74 429.06 156.62 265.1 165.4 430.16 192.19 429.69 187.75 230.9 126.78 230.44"/><path class="cls-7" d="M164.92,430.67l0-.49L156.32,268.9,122.13,429.61l-25.68-3.26,29.9-196.41,61.89.47,4.46,199.77Zm-8-169.38,9,168.36,25.81-.45-4.42-197.8-60-.45L97.59,425.49l23.75,3Z"/><path class="cls-17" d="M184.23,429.38c-.15,0-.26-39.17-.26-87.47s.11-87.48.26-87.48.26,39.16.26,87.48S184.37,429.38,184.23,429.38Z"/><path class="cls-17" d="M116.3,428.66a2.26,2.26,0,0,1,.06-.42c.06-.3.13-.71.23-1.24.21-1.11.52-2.71.92-4.75.83-4.15,2-10.1,3.5-17.45,3-14.72,7.25-35,12.13-57.44s9.48-42.66,12.87-57.3c1.72-7.3,3.11-13.21,4.07-17.32.49-2,.88-3.61,1.14-4.71.14-.51.24-.92.31-1.22a3.17,3.17,0,0,1,.13-.41,3.37,3.37,0,0,1-.07.43c-.07.3-.15.7-.26,1.23-.25,1.1-.6,2.69-1.05,4.72-.93,4.13-2.26,10.05-3.91,17.36-3.3,14.66-7.83,34.92-12.72,57.33s-9.19,42.7-12.28,57.41c-1.54,7.33-2.79,13.27-3.67,17.41-.43,2-.77,3.62-1,4.73l-.28,1.23A1.65,1.65,0,0,1,116.3,428.66Z"/><path class="cls-17" d="M165.4,264.92a4.41,4.41,0,0,1-1.13.15l-3.09.22c-2.61.18-6.21.36-10.18.74s-7.53.93-10.12,1.27l-3.07.39a4.46,4.46,0,0,1-1.14.07,5.33,5.33,0,0,1,1.11-.27c.71-.15,1.76-.33,3-.56,2.58-.43,6.15-1,10.13-1.41s7.6-.52,10.21-.6c1.31,0,2.37-.05,3.1-.05A5.42,5.42,0,0,1,165.4,264.92Z"/><path class="cls-17" d="M188.27,252.23a2.31,2.31,0,0,1-.77.19,10.25,10.25,0,0,1-2.16.1,12.51,12.51,0,0,1-11-7.93,9.88,9.88,0,0,1-.6-2.08,2,2,0,0,1-.06-.79c.09,0,.26,1.1,1,2.73a13,13,0,0,0,10.73,7.7C187.14,252.33,188.26,252.14,188.27,252.23Z"/><path class="cls-17" d="M121.69,234.28l68.48-.22-3.75-45.19c-.41-10.34-.35-11.58-.61-21.12,0,0,9.72,11.75,17.37,20a15.57,15.57,0,0,0,18.08,3.47l40-27.91-7.49-19.16-36.36,22.25c-1.66-1-15.82-21.22-25.6-31.08a34.61,34.61,0,0,0-23.59-10.2,171.72,171.72,0,0,0-22.08.88,23.12,23.12,0,0,0-20.57,21.07c-.71,8.45-.14,18.26-.14,34.93Z"/><path class="cls-7" d="M124.91,151.63s0,.18,0,.52,0,.91,0,1.52c0,1.31,0,3.21,0,5.56,0,4.7.22,11.19.42,18.35s.24,13.67.06,18.37c-.08,2.34-.19,4.24-.3,5.55,0,.61-.09,1.11-.12,1.51s-.06.53-.06.53,0-.19,0-.53,0-.9.08-1.51c.09-1.31.17-3.21.23-5.56.14-4.69.08-11.18-.12-18.35s-.37-13.66-.36-18.36c0-2.35,0-4.25.07-5.56,0-.61,0-1.11,0-1.52S124.91,151.63,124.91,151.63Z"/><path class="cls-7" d="M215.92,172.86a4.17,4.17,0,0,1,.15-.94c.11-.58.28-1.37.49-2.25s.4-1.66.55-2.23a3.89,3.89,0,0,1,.29-.91,4.13,4.13,0,0,1-.15.95c-.11.57-.28,1.37-.49,2.24s-.4,1.66-.55,2.23A3.89,3.89,0,0,1,215.92,172.86Z"/><path class="cls-7" d="M219.57,173.42a33.14,33.14,0,0,1-.93-3.6,34.35,34.35,0,0,1-.73-3.65,30.6,30.6,0,0,1,.93,3.6A35.46,35.46,0,0,1,219.57,173.42Z"/><path class="cls-7" d="M187.5,169.44l-.37-.34-1-1c-.9-.89-2.2-2.18-3.76-3.82a63.32,63.32,0,0,1-5.1-6.1,35.4,35.4,0,0,1-4.65-8.54,23.93,23.93,0,0,1-1.53-9.58,19.91,19.91,0,0,1,1.72-7.73,11.15,11.15,0,0,1,4.59-4.94c.28-.17.44-.25.44-.25s-.62.34-1.61,1.12a11.34,11.34,0,0,0-3.28,4.13,19.9,19.9,0,0,0-1.67,7.68,23.92,23.92,0,0,0,1.54,9.5,35.74,35.74,0,0,0,4.6,8.5,66.28,66.28,0,0,0,5.06,6.11c1.54,1.65,2.83,3,3.71,3.86l1,1C187.39,169.31,187.5,169.44,187.5,169.44Z"/><path class="cls-14" d="M143,150.85a22.78,22.78,0,0,1-4.29-5.41,22.78,22.78,0,0,1,4.29,5.41Z"/><path class="cls-14" d="M158.55,168.51a22.3,22.3,0,0,1-3.24,3.61,21.93,21.93,0,0,1-3.61,3.23,23.12,23.12,0,0,1,3.24-3.6A23.42,23.42,0,0,1,158.55,168.51Z"/><path class="cls-14" d="M173.61,193.86c-.14,0-.69-1.5-1.71-3.22s-2.08-3-2-3.08a7.53,7.53,0,0,1,2.42,2.81A7.28,7.28,0,0,1,173.61,193.86Z"/><path class="cls-14" d="M134.57,191a14.46,14.46,0,0,1-1.6-5,14.25,14.25,0,0,1-.2-5.25c.16,0,.21,2.34.71,5.16S134.72,190.93,134.57,191Z"/><path class="cls-14" d="M155.3,202.15a12.69,12.69,0,0,1-.76-8.58c.15,0-.07,2,.15,4.31S155.45,202.1,155.3,202.15Z"/><path class="cls-14" d="M147.11,218.37a27.93,27.93,0,0,1-4.71-2.64,27.47,27.47,0,0,1-4.42-3.07,28.89,28.89,0,0,1,4.7,2.63A28.89,28.89,0,0,1,147.11,218.37Z"/><path class="cls-14" d="M179.34,213.57c.07.14-2.25,1.29-4.94,3s-4.74,3.29-4.84,3.17a19.27,19.27,0,0,1,4.56-3.61A19.51,19.51,0,0,1,179.34,213.57Z"/><path class="cls-14" d="M138.8,231.9a25.21,25.21,0,0,1-5.05-.74,25.1,25.1,0,0,1-4.94-1.25,25.17,25.17,0,0,1,5,.74A25.58,25.58,0,0,1,138.8,231.9Z"/><path class="cls-14" d="M160.41,228.38a13,13,0,0,1-3.71-6.85c.14,0,.76,1.59,1.79,3.46S160.53,228.29,160.41,228.38Z"/><path class="cls-14" d="M184.73,230.07a7.38,7.38,0,0,1-1.56,2.27c-1,1.17-1.84,2-1.95,1.94a7.36,7.36,0,0,1,1.55-2.27C183.74,230.85,184.62,230,184.73,230.07Z"/><path class="cls-14" d="M140.24,161.33c.08.12-.81.86-2,1.65a6.51,6.51,0,0,1-2.28,1.21c-.08-.12.81-.86,2-1.65A6.72,6.72,0,0,1,140.24,161.33Z"/><path class="cls-14" d="M157.12,142.48a22.54,22.54,0,0,1-1.8-5.14,22.29,22.29,0,0,1-1-5.36,39.71,39.71,0,0,1,1.51,5.22A38.28,38.28,0,0,1,157.12,142.48Z"/><path class="cls-14" d="M173.33,159.64c-.06.14-1.52-.42-3.4-.77s-3.44-.38-3.44-.53a6.91,6.91,0,0,1,3.54,0A7.12,7.12,0,0,1,173.33,159.64Z"/><path class="cls-14" d="M184.47,145.06a7.7,7.7,0,0,1-3.82.13,7.62,7.62,0,0,1-3.6-1.27c.06-.14,1.64.45,3.68.75S184.45,144.91,184.47,145.06Z"/><path class="cls-14" d="M195.87,161.33a17.64,17.64,0,0,1,.27-5.52,17.93,17.93,0,0,1,1.48-5.32c.15,0-.49,2.42-1,5.41S196,161.33,195.87,161.33Z"/><path class="cls-14" d="M209.26,180.48a22.46,22.46,0,0,1-3.56-3.3,22.43,22.43,0,0,1-3.18-3.65,45.54,45.54,0,0,1,6.74,6.95Z"/><path class="cls-14" d="M220.4,179a13.52,13.52,0,0,1-1.79,3.27,13.73,13.73,0,0,1-2.24,3,13.79,13.79,0,0,1,1.8-3.27A13.52,13.52,0,0,1,220.4,179Z"/><path class="cls-14" d="M233.33,172.71a18.71,18.71,0,0,1-2.16-3.85,18.85,18.85,0,0,1-1.69-4.08,18.71,18.71,0,0,1,2.16,3.85A18.85,18.85,0,0,1,233.33,172.71Z"/><path class="cls-14" d="M250.93,165.42a19.81,19.81,0,0,1-4.59-.55,20.44,20.44,0,0,1-4.5-1.06,20.49,20.49,0,0,1,4.59.55A21.14,21.14,0,0,1,250.93,165.42Z"/><path class="cls-14" d="M111.13,184.15a23.68,23.68,0,0,1,1.85-4.56,23.78,23.78,0,0,1,2.33-4.33,23.68,23.68,0,0,1-1.85,4.56A23.78,23.78,0,0,1,111.13,184.15Z"/><path class="cls-14" d="M120.46,167.69a17,17,0,0,1-3-3,16.89,16.89,0,0,1-2.64-3.33,17.85,17.85,0,0,1,3,3A17.85,17.85,0,0,1,120.46,167.69Z"/><path class="cls-14" d="M119.68,194.13c.1.11-.6.83-1.54,1.62s-1.79,1.34-1.88,1.22.6-.83,1.54-1.62S119.59,194,119.68,194.13Z"/><path class="cls-14" d="M122.84,150.2c.11.09-.31.8-.94,1.59s-1.24,1.35-1.35,1.26.31-.8.94-1.59S122.72,150.11,122.84,150.2Z"/><g class="cls-19"><path d="M175.1,154.75c4.23,13.29,7.49,27.24,11.72,40.52l-1-27.52A66.09,66.09,0,0,1,175.1,154.75Z"/></g><path class="cls-7" d="M106.29,172.14a1.66,1.66,0,0,1,.13-.33l.41-.92c.35-.8.89-1.95,1.56-3.36,1.36-2.82,3.33-6.67,5.68-10.83s4.65-7.82,6.37-10.43c.86-1.3,1.57-2.35,2.07-3.07l.58-.82a2.14,2.14,0,0,1,.22-.28s-.06.11-.18.3l-.55.85-2,3.1c-1.69,2.63-4,6.31-6.31,10.46s-4.34,8-5.72,10.79c-.66,1.33-1.2,2.44-1.63,3.32l-.44.91C106.35,172,106.3,172.14,106.29,172.14Z"/><path class="cls-7" d="M113,159.41s-.43.17-1.1.46a14,14,0,0,0-2.48,1.37,14.46,14.46,0,0,0-2.15,1.85c-.5.53-.79.89-.81.87s0-.11.16-.28.3-.41.54-.69a12.07,12.07,0,0,1,2.14-1.92,12.22,12.22,0,0,1,2.55-1.34,6,6,0,0,1,.83-.26C112.92,159.41,113,159.39,113,159.41Z"/><path class="cls-14" d="M114,138.9a31.14,31.14,0,0,1-3,4.64,29.7,29.7,0,0,1-3.47,4.35,30,30,0,0,1,3-4.65A28.85,28.85,0,0,1,114,138.9Z"/><path class="cls-8" d="M121.2,122.63a2.43,2.43,0,0,0,2.54-1.2c.56-.84.82-1.84,1.31-2.71,1.49-2.62,4.87-3.76,6.23-6.44.19-.37.3-.89,0-1.16s-.75-.08-1.09.1l-8.91,4.46"/><path class="cls-9" d="M121.26,115.68a3.77,3.77,0,0,1,.91-.58c.61-.35,1.49-.82,2.59-1.4l3.87-2,1.12-.57a2,2,0,0,1,1.45-.35.82.82,0,0,1,.54.77,1.71,1.71,0,0,1-.18.8,6.18,6.18,0,0,1-.8,1.23,37.14,37.14,0,0,1-4,3.53,7.41,7.41,0,0,0-1.45,1.72c-.36.6-.59,1.24-.87,1.8a3.45,3.45,0,0,1-2.11,2.09,1.26,1.26,0,0,1-1.09-.08,3.07,3.07,0,0,0,1-.13,3.37,3.37,0,0,0,1.82-2,18.61,18.61,0,0,1,.82-1.88,7.72,7.72,0,0,1,1.51-1.86,45,45,0,0,0,3.95-3.51,5.9,5.9,0,0,0,.73-1.11c.18-.37.18-.76,0-.8s-.64.11-1,.31l-1.13.55-3.92,1.9c-1.12.53-2,1-2.67,1.23A4.82,4.82,0,0,1,121.26,115.68Z"/></g><g id="Plant"><rect class="cls-7" x="351.55" y="395.63" width="63.3" height="8.7"/><path class="cls-7" d="M415,404.44H351.44v-8.91H415Zm-63.29-.22h63.08v-8.48H351.66Z"/><polygon class="cls-7" points="357.42 401.44 366.53 446.38 400.24 446.38 409.05 404.33 357.42 401.44"/><polygon class="cls-17" points="357.42 442.13 362.28 448.81 403.25 448.81 409.05 442.13 357.42 442.13"/><path class="cls-7" d="M380.82,402.75c-.12,0-.28-20.82-.36-46.5s0-46.51.1-46.51.28,20.82.36,46.51S381,402.75,380.82,402.75Z"/><path class="cls-7" d="M394.92,350.64a2.23,2.23,0,0,1-.17.49l-.56,1.34-.42,1-.42,1.19c-.15.42-.31.87-.49,1.35s-.3,1-.46,1.55a59.73,59.73,0,0,0-1.77,7.75,90.6,90.6,0,0,0-1,9.69,129.93,129.93,0,0,0,.5,17.7c.2,2.26.4,4.09.55,5.35.07.59.12,1.07.16,1.45a2.18,2.18,0,0,1,0,.51,1.66,1.66,0,0,1-.12-.5q-.09-.56-.24-1.44c-.2-1.25-.46-3.08-.7-5.34a117.56,117.56,0,0,1-.64-17.75,88.57,88.57,0,0,1,1-9.74,58.75,58.75,0,0,1,1.87-7.78c.18-.54.32-1.06.5-1.54l.53-1.35.45-1.18c.16-.35.32-.67.46-1l.64-1.31A2.38,2.38,0,0,1,394.92,350.64Z"/><path class="cls-7" d="M393.3,333.8a3.22,3.22,0,0,1-.2.69c-.16.48-.38,1.12-.66,1.93-.14.43-.31.89-.48,1.4l-.51,1.68c-.37,1.2-.8,2.57-1.18,4.11-.2.77-.42,1.58-.64,2.41l-.59,2.63c-.44,1.82-.76,3.79-1.17,5.84-.7,4.14-1.31,8.71-1.73,13.53s-.58,9.44-.64,13.64,0,8,.21,11.14c.06,1.59.16,3,.24,4.28s.15,2.34.23,3.23.12,1.53.16,2a3.57,3.57,0,0,1,0,.72,5.78,5.78,0,0,1-.11-.71l-.24-2c-.11-.88-.21-2-.31-3.22s-.23-2.69-.31-4.28c-.21-3.17-.3-7-.31-11.17s.2-8.83.61-13.67,1.05-9.42,1.77-13.56c.42-2.06.76-4,1.22-5.85.21-.91.42-1.79.62-2.63l.66-2.41c.4-1.54.85-2.91,1.25-4.11.19-.6.38-1.15.54-1.67l.53-1.39c.31-.79.55-1.43.74-1.91A4.65,4.65,0,0,1,393.3,333.8Z"/><path class="cls-7" d="M376.82,406.43a.92.92,0,0,1,0-.24c0-.19,0-.42-.06-.72,0-.66-.1-1.58-.18-2.75-.16-2.43-.37-5.89-.64-10.15-.55-8.56-1.34-20.39-2.78-33.4-.74-6.5-1.59-12.68-2.48-18.28-.47-2.79-.9-5.45-1.39-7.93s-.92-4.78-1.36-6.88-.88-4-1.26-5.65-.72-3.09-1-4.25L365,313.5c-.07-.29-.12-.52-.16-.7a1.07,1.07,0,0,1,0-.25.75.75,0,0,1,.08.24c.06.18.12.4.21.68.17.65.42,1.54.74,2.67s.7,2.57,1.09,4.23.88,3.54,1.32,5.64,1,4.4,1.42,6.88.95,5.14,1.43,7.93c.91,5.61,1.78,11.79,2.51,18.3,1.45,13,2.19,24.87,2.66,33.43.23,4.29.39,7.76.49,10.16,0,1.17.08,2.09.1,2.76,0,.29,0,.53,0,.72A.87.87,0,0,1,376.82,406.43Z"/><path class="cls-20" d="M380.3,319.75c-.27-2.95-3.25-5.18-6.21-5.21a9.8,9.8,0,0,0-7.54,4.09,23.72,23.72,0,0,0-3.63,8.06,54.86,54.86,0,0,0-2.23,21.43c.85,7.18,3.77,14.25,8.92,19.32.84.82,1.92,1.65,3.07,1.4a3.68,3.68,0,0,0,1.62-1,48,48,0,0,0,15.57-36.47c-.08-2.73-.44-5.57-1.95-7.84s-5-4.69-7.62-3.78"/><path class="cls-20" d="M358.18,296.12,354,303.68c-.1.17-.23.37-.43.39s-.38-.19-.5-.38l-11-16.93,2.54-1.44Z"/><g class="cls-21"><path d="M358.18,296.12,354,303.68c-.1.17-.23.37-.43.39s-.38-.19-.5-.38l-11-16.93,2.54-1.44Z"/></g><path class="cls-20" d="M380.56,309.74l-37.63-22.21a1.73,1.73,0,0,1-.92-.92c-.15-.56.27-1.1.67-1.51a26,26,0,0,1,20.11-7.9A23,23,0,0,1,381,288.51c3.63,6.49,3.75,15.07-.41,21.23"/><path class="cls-7" d="M348.35,280.44l.5-.06c.32,0,.8-.07,1.42-.07a28.8,28.8,0,0,1,5.22.42,31,31,0,0,1,15.42,7.44,30.83,30.83,0,0,1,8.94,14.6,28,28,0,0,1,.93,5.15c.07.62,0,.78.06,1.1a2.05,2.05,0,0,1-.29.82,6.57,6.57,0,0,0,.05-1.9,31.29,31.29,0,0,0-30.33-27.45C349,280.46,348.35,280.48,348.35,280.44Z"/><path class="cls-7" d="M375.47,294.41a9.42,9.42,0,0,1-1.91.87c-1.2.47-2.87,1.07-4.74,1.67s-3.6,1.07-4.85,1.37a8.7,8.7,0,0,1-2.05.39,10.31,10.31,0,0,1,2-.69l4.79-1.5,4.78-1.54A9.81,9.81,0,0,1,375.47,294.41Z"/><path class="cls-7" d="M369.54,278.49a25.87,25.87,0,0,1,.21,8.42,29,29,0,0,1-.22-4.21A26.56,26.56,0,0,1,369.54,278.49Z"/><path class="cls-7" d="M342.6,287.11a16.83,16.83,0,0,1,2.73-1c1.71-.53,4.09-1.19,6.75-1.83s5.08-1.13,6.84-1.44a16.83,16.83,0,0,1,2.87-.39,21.46,21.46,0,0,1-2.81.7c-1.74.39-4.15.93-6.8,1.56s-5,1.26-6.76,1.71A21.34,21.34,0,0,1,342.6,287.11Z"/><path class="cls-20" d="M364.69,313.35c-3.24-2.46-6.66-2.94-10.72-2.78a32.72,32.72,0,0,0-11.73,3c-6.35,2.78-12.31,6.87-16.1,12.67s-5.11,13.47-2.27,19.79a2.81,2.81,0,0,0,1.28,1.56,3,3,0,0,0,2.12-.16c7.22-2.35,14.49-4.73,21.13-8.42s12.67-8.81,16.23-15.51a13.29,13.29,0,0,0,1.71-5.15,6.4,6.4,0,0,0-1.65-5"/><path class="cls-7" d="M364.75,312.59a4,4,0,0,1-.52.21l-1.51.52-1.1.36-1.28.5c-.91.37-2,.74-3.08,1.28l-1.77.81c-.62.28-1.23.63-1.88,1-1.31.64-2.63,1.46-4,2.29a63.68,63.68,0,0,0-15.92,14c-1,1.29-2,2.5-2.79,3.72-.41.6-.84,1.16-1.2,1.74l-1,1.65c-.68,1-1.18,2-1.67,2.9-.23.43-.46.83-.65,1.2l-.5,1-.71,1.44a2.91,2.91,0,0,1-.28.49,2.73,2.73,0,0,1,.19-.53c.17-.38.38-.87.64-1.47l.47-1.06c.18-.38.4-.79.62-1.23.47-.87.95-1.89,1.61-2.95.33-.53.66-1.09,1-1.67s.77-1.15,1.18-1.76c.79-1.24,1.77-2.46,2.78-3.77a61.78,61.78,0,0,1,16-14.1c1.43-.83,2.77-1.64,4.09-2.27.65-.33,1.28-.67,1.9-.95l1.79-.78c1.13-.53,2.2-.88,3.13-1.23.46-.16.89-.33,1.29-.46l1.11-.33,1.55-.44A1.87,1.87,0,0,1,364.75,312.59Z"/><path class="cls-7" d="M339.47,326.28a76.79,76.79,0,0,1-7.88,2.53,73.84,73.84,0,0,1-8,2.11,75.26,75.26,0,0,1,7.88-2.54A75.07,75.07,0,0,1,339.47,326.28Z"/><path class="cls-7" d="M339.14,343.65a12.78,12.78,0,0,1-.17-2.45c0-1.52-.05-3.62,0-5.93s.19-4.41.32-5.92a13.2,13.2,0,0,1,.31-2.44,15,15,0,0,1,0,2.46c-.05,1.66-.12,3.68-.18,5.91s-.11,4.26-.15,5.92A13,13,0,0,1,339.14,343.65Z"/><path class="cls-7" d="M354,336.07c-.12,0-.52-4.25-.88-9.51s-.56-9.54-.43-9.55.52,4.25.88,9.51S354.15,336.06,354,336.07Z"/><path class="cls-7" d="M335.5,316.6a13,13,0,0,1,2.52-.08c1.56,0,3.71.06,6.08.13s4.52.18,6.07.27a14.24,14.24,0,0,1,2.51.24,12.9,12.9,0,0,1-2.52.08c-1.55,0-3.7-.06-6.08-.13s-4.52-.18-6.07-.27A14.07,14.07,0,0,1,335.5,316.6Z"/><path class="cls-7" d="M371.22,368.43a2.8,2.8,0,0,1-.05-.5c0-.38,0-.86-.07-1.45-.06-1.26-.07-3.08,0-5.33s.19-4.93.46-7.89.72-6.22,1.33-9.6,1.37-6.58,2.14-9.46,1.59-5.44,2.35-7.56,1.4-3.84,1.9-5l.57-1.33a2.17,2.17,0,0,1,.23-.46,2.9,2.9,0,0,1-.14.49c-.13.36-.3.81-.5,1.37-.44,1.17-1.05,2.89-1.76,5s-1.48,4.7-2.25,7.57-1.48,6.06-2.1,9.43-1,6.6-1.35,9.56-.48,5.62-.56,7.86-.13,4.06-.12,5.32c0,.59,0,1.07,0,1.44A1.81,1.81,0,0,1,371.22,368.43Z"/><path class="cls-7" d="M373.21,343.79a10.24,10.24,0,0,1-1.5,1.65c-1,1-2.36,2.27-3.94,3.66s-3,2.58-4.14,3.42a9.86,9.86,0,0,1-1.83,1.27,11.38,11.38,0,0,1,1.63-1.52l4.05-3.51,4-3.55A11.46,11.46,0,0,1,373.21,343.79Z"/><path class="cls-7" d="M385.12,353.39a18.25,18.25,0,0,1-1.6-2.22l-3.72-5.42c-1.44-2.05-2.75-3.89-3.8-5.38a18.29,18.29,0,0,1-1.52-2.27,15,15,0,0,1,1.78,2.08c1,1.33,2.44,3.19,3.91,5.31s2.74,4.07,3.62,5.51A15,15,0,0,1,385.12,353.39Z"/><path class="cls-7" d="M378.88,323.21c.07.11-3.89,2.77-8.84,6s-9,5.67-9.08,5.57,3.89-2.77,8.84-6S378.81,323.11,378.88,323.21Z"/><path class="cls-7" d="M390,335.25a74.22,74.22,0,0,1-6-5.53,72.24,72.24,0,0,1-5.67-5.85A144.42,144.42,0,0,1,390,335.25Z"/><path class="cls-20" d="M392.84,335l3.4-.28a16.78,16.78,0,0,0,6.86-2.1,28,28,0,0,1,3.19-1.61c4.2-1.68,8.89-1.38,13.41-1.61A55.46,55.46,0,0,0,441,324a2.1,2.1,0,0,0,.93-.84c.7-1.27-.6-2.4-1.71-3.09-5.73-3.53-11.55-7.1-18-8.85s-13.86-1.45-19.39,2.36c-6.5,4.47-8.87,13.66-10,21.47"/><path class="cls-7" d="M442,322.7a3.58,3.58,0,0,1-.58-.27l-1.61-.84c-1.4-.74-3.41-1.82-5.95-3a55.81,55.81,0,0,0-9.2-3.54,30.31,30.31,0,0,0-11.93-1,20.42,20.42,0,0,0-10.88,4.67,24.31,24.31,0,0,0-5.66,8,65.41,65.41,0,0,0-2.46,6.2c-.25.71-.45,1.28-.61,1.71a5,5,0,0,1-.23.59,2.35,2.35,0,0,1,.15-.62c.13-.44.3-1,.52-1.74a58.58,58.58,0,0,1,2.34-6.27,24.08,24.08,0,0,1,5.68-8.13,20.64,20.64,0,0,1,11.09-4.81,30.33,30.33,0,0,1,12.1,1,52.45,52.45,0,0,1,9.23,3.66c2.54,1.26,4.52,2.38,5.9,3.17l1.56.91A5.4,5.4,0,0,1,442,322.7Z"/><path class="cls-7" d="M433.87,327.08c-.07.11-4.51-2.77-9.92-6.41s-9.74-6.69-9.67-6.8,4.51,2.77,9.92,6.42S433.94,327,433.87,327.08Z"/><path class="cls-7" d="M429.13,313.64a10.83,10.83,0,0,1-3.23.58,11.14,11.14,0,0,1-3.3,0,21.77,21.77,0,0,1,3.26-.34A21.12,21.12,0,0,1,429.13,313.64Z"/><path class="cls-7" d="M409.68,311.1a8.45,8.45,0,0,1-1.45,2.28,9.83,9.83,0,0,1-1.85,2.1,8.66,8.66,0,0,1,1.46-2.28A10.27,10.27,0,0,1,409.68,311.1Z"/><path class="cls-7" d="M413.66,329.7a11.8,11.8,0,0,1-2.13-1.16c-1.29-.78-3-1.92-4.87-3.26s-3.49-2.62-4.67-3.55a13.21,13.21,0,0,1-1.84-1.59,12.91,12.91,0,0,1,2,1.33l4.73,3.44c1.85,1.34,3.54,2.52,4.78,3.36A14,14,0,0,1,413.66,329.7Z"/><path class="cls-20" d="M397.84,349.44c-3.24-.85-7.1,2.3-7.77,5.58s.57,6.64,2,9.67a49.32,49.32,0,0,0,13.4,17.53A33.11,33.11,0,0,0,426,389.76c-1.37-6.36.36-13-.4-19.47a25.31,25.31,0,0,0-22.43-22.21c-2.07-.22-4.46-.55-5.29,1.36"/><path class="cls-7" d="M426,389.76a2.06,2.06,0,0,1-.46-.22,7.84,7.84,0,0,1-1.21-.81,12.49,12.49,0,0,1-3.2-4.28c-.52-1-1.1-2.09-1.66-3.3s-1.13-2.49-1.74-3.85a38.64,38.64,0,0,0-2.14-4.12,32.68,32.68,0,0,0-2.95-4c-2.22-2.6-4.6-4.85-6.66-7a45.14,45.14,0,0,1-5.08-6.09,22.35,22.35,0,0,1-2.48-4.74c-.21-.6-.36-1.07-.44-1.39a2.46,2.46,0,0,1-.1-.5s.23.66.7,1.82a24.15,24.15,0,0,0,2.58,4.63,47.53,47.53,0,0,0,5.12,6c2.07,2.13,4.46,4.38,6.7,7a32.76,32.76,0,0,1,3,4.07,36.12,36.12,0,0,1,2.15,4.18c.59,1.36,1.16,2.65,1.7,3.87s1.11,2.3,1.6,3.31a13.35,13.35,0,0,0,3,4.29C425.35,389.41,426,389.71,426,389.76Z"/><path class="cls-7" d="M409.21,384.47a9.63,9.63,0,0,1,.29-2.18c.26-1.33.67-3.16,1.24-5.16s1.16-3.78,1.64-5.05a10.25,10.25,0,0,1,.88-2,12,12,0,0,1-.58,2.12c-.4,1.29-.95,3.08-1.51,5.06s-1,3.8-1.35,5.11A13,13,0,0,1,409.21,384.47Z"/><path class="cls-7" d="M425.35,368.86a13.51,13.51,0,0,1-2.29-.53c-1.39-.36-3.32-.86-5.46-1.35s-4.11-.85-5.52-1.12a12.54,12.54,0,0,1-2.29-.51,10.87,10.87,0,0,1,2.34.19c1.43.19,3.41.52,5.56,1s4.09,1,5.46,1.49A10.82,10.82,0,0,1,425.35,368.86Z"/><path class="cls-7" d="M397.18,373.39a14.31,14.31,0,0,1,.36-2.52c.28-1.55.73-3.67,1.34-6s1.25-4.4,1.76-5.88a12.32,12.32,0,0,1,.93-2.38,16,16,0,0,1-.63,2.47c-.43,1.51-1,3.59-1.62,5.91s-1.11,4.42-1.47,5.95A14.51,14.51,0,0,1,397.18,373.39Z"/><path class="cls-7" d="M417.91,355.25c0,.12-4.05-.21-9-.73s-9-1.06-9-1.18a88.1,88.1,0,0,1,9,.73A89.44,89.44,0,0,1,417.91,355.25Z"/><path class="cls-17" d="M415,404.29c0,.13-14.22.23-31.75.23s-31.75-.1-31.75-.23,14.21-.22,31.75-.22S415,404.17,415,404.29Z"/><path class="cls-17" d="M405.06,422.59c0,.13-9.58.23-21.39.23s-21.4-.1-21.4-.23,9.58-.22,21.4-.22S405.06,422.47,405.06,422.59Z"/><path class="cls-17" d="M404.69,425.21c0,.12-9.41.22-21,.22s-21-.1-21-.22,9.41-.23,21-.23S404.69,425.08,404.69,425.21Z"/><path class="cls-17" d="M405.43,420.43c0,.13-9.91.23-22.13.23s-22.13-.1-22.13-.23,9.91-.22,22.13-.22S405.43,420.31,405.43,420.43Z"/></g><g id="Numerical_Signs" data-name="Numerical Signs"><path class="cls-7" d="M401.2,35.12c0,.15-6.72.23-15,.18s-15-.19-15-.34,6.71-.22,15-.18S401.2,35,401.2,35.12Z"/><path class="cls-7" d="M386.36,50c-.15,0-.33-6.71-.41-15s0-15,.1-15,.33,6.71.42,15S386.5,50,386.36,50Z"/><path class="cls-7" d="M417,258.93a98.21,98.21,0,0,1-9.21-4.4,100.29,100.29,0,0,1-9-4.88,100.62,100.62,0,0,1,9.2,4.41C413.06,256.62,417.07,258.81,417,258.93Z"/><path class="cls-7" d="M403.42,263.45a97.32,97.32,0,0,1,4.27-9.27,98.77,98.77,0,0,1,4.73-9,101.38,101.38,0,0,1-4.26,9.27A101.92,101.92,0,0,1,403.42,263.45Z"/><path class="cls-7" d="M58,188.52c.05.13-4.73,2.17-10.69,4.54s-10.83,4.19-10.88,4.06,4.73-2.17,10.69-4.54S58,188.39,58,188.52Z"/><path class="cls-7" d="M47,182s-.17-.29-.53-.75a3.7,3.7,0,0,0-2-1.3,3.54,3.54,0,1,0,2.11,5.29,3.76,3.76,0,0,0,.56-2.33c-.05-.58-.17-.89-.13-.91a1.91,1.91,0,0,1,.33.88,3.7,3.7,0,0,1-.44,2.54,3.91,3.91,0,0,1-3.26,2,4,4,0,0,1-2.78-7,3.93,3.93,0,0,1,3.71-.82,3.78,3.78,0,0,1,2.08,1.54A1.81,1.81,0,0,1,47,182Z"/><path class="cls-7" d="M54.5,200.83s-.17-.29-.53-.75a3.74,3.74,0,0,0-2-1.3,3.55,3.55,0,0,0-4.21,4.74,3.56,3.56,0,0,0,6.32.54,3.73,3.73,0,0,0,.56-2.32c-.05-.58-.17-.89-.13-.91a1.91,1.91,0,0,1,.33.88,3.7,3.7,0,0,1-.44,2.54,3.93,3.93,0,0,1-3.26,2,4,4,0,0,1-2.79-7,4,4,0,0,1,3.72-.82A3.71,3.71,0,0,1,54.13,200,1.91,1.91,0,0,1,54.5,200.83Z"/></g><g id="Speech_Bubble" data-name="Speech Bubble"><path class="cls-7" d="M114,84.57s.12.27.31.79.47,1.31.83,2.31l3.12,8.87.07.19-.2,0L105.2,95l.13,0a33.4,33.4,0,0,1-15.41,6.73,32.57,32.57,0,0,1-4.79.41c-.82,0-1.65-.07-2.48-.09l-1.26-.07c-.42,0-.84-.11-1.26-.17a32,32,0,0,1-10.11-3,33.14,33.14,0,0,1-15.9-16.22A33.62,33.62,0,0,1,66.27,40.3,32.51,32.51,0,0,1,76,36l1.27-.33.63-.16.64-.1L81.12,35c.85-.07,1.7-.09,2.55-.14a17.67,17.67,0,0,1,2.52,0c.83.07,1.67,0,2.48.18l2.43.38c.81.13,1.58.38,2.36.57l1.16.3c.38.12.75.27,1.13.4a32.78,32.78,0,0,1,8.17,4.18,33.5,33.5,0,0,1,14.22,25.42A32.57,32.57,0,0,1,115,82.58c-.32.67-.58,1.17-.77,1.49s-.3.5-.3.5l.25-.51c.17-.34.42-.85.73-1.52a34.72,34.72,0,0,0,2.1-6.09,32.14,32.14,0,0,0,.82-10.12,33.18,33.18,0,0,0-14.18-25.09,33,33,0,0,0-8.08-4.1c-.36-.13-.73-.27-1.1-.39l-1.15-.3c-.77-.18-1.53-.43-2.33-.55l-2.39-.37c-.81-.14-1.63-.11-2.45-.17a15.91,15.91,0,0,0-2.49,0c-.83,0-1.67.07-2.51.14l-2.52.39L78,36l-.62.16-1.25.33a32.17,32.17,0,0,0-9.6,4.28A33.22,33.22,0,0,0,61.2,91.84a33.92,33.92,0,0,0,9,6.42,31.33,31.33,0,0,0,10,3c.41.06.83.14,1.24.18l1.24.06c.83,0,1.64.12,2.45.1a31.77,31.77,0,0,0,4.73-.39,33.17,33.17,0,0,0,15.27-6.58l.06,0h.07l12.87,1.85-.13.15-3-9c-.33-1-.59-1.77-.77-2.31S114,84.57,114,84.57Z"/><path class="cls-12" d="M86.41,60.67a1.34,1.34,0,0,1,.75,1.21v6.66a1.34,1.34,0,0,1-1.7,1.28,4.18,4.18,0,0,0-3.26.5,3.72,3.72,0,0,0-1.77,2.38,3.8,3.8,0,0,0,.68,2.91,4.28,4.28,0,0,0,2.74,1.82A5,5,0,0,0,89.09,74a1.35,1.35,0,0,1,1.68-.87,1.33,1.33,0,0,1,.87,1.68,7.7,7.7,0,0,1-8.21,5.22,6.93,6.93,0,0,1-4.53-2.94,6.49,6.49,0,0,1-1.09-5,6.39,6.39,0,0,1,3-4.11,7,7,0,0,1,3.67-1V61.87a1.34,1.34,0,0,1,1.34-1.33A1.44,1.44,0,0,1,86.41,60.67Z"/><path class="cls-12" d="M84.56,57.87a1.1,1.1,0,0,1,1.07-1.12,1.09,1.09,0,1,1-1.07,1.12Z"/></g></svg>