<svg xmlns="http://www.w3.org/2000/svg" viewBox="0 0 463.93 572.4"><g id="objects"><path d="M376,538.28a11.2,11.2,0,0,1-11.2-11.2V170.87a4.65,4.65,0,0,0-1.38-3.32l-67-67a4.65,4.65,0,0,0-3.32-1.38H45.33a11.2,11.2,0,1,1,0-22.39H293.06a26.89,26.89,0,0,1,19.16,7.93l67,67a26.91,26.91,0,0,1,7.94,19.16V527.08A11.21,11.21,0,0,1,376,538.28Z"/><path d="M414.34,499.88a11.19,11.19,0,0,1-11.2-11.2V132.48a4.7,4.7,0,0,0-1.37-3.31l-67-67a4.65,4.65,0,0,0-3.32-1.38H83.72a11.2,11.2,0,0,1,0-22.4H331.45a26.91,26.91,0,0,1,19.16,7.94l67,67a27.28,27.28,0,0,1,7.94,19.16v356.2A11.19,11.19,0,0,1,414.34,499.88Z"/><path d="M452.73,461.49a11.19,11.19,0,0,1-11.2-11.2V94.09a4.67,4.67,0,0,0-1.38-3.33l-67-67a4.73,4.73,0,0,0-3.32-1.37H122.11a11.2,11.2,0,0,1,0-22.4H369.84A27.24,27.24,0,0,1,389,7.94l67,67a26.93,26.93,0,0,1,7.94,19.16v356.2A11.2,11.2,0,0,1,452.73,461.49Z"/><path d="M342.27,209H277.15a22.28,22.28,0,0,1-22.25-22.26V121.65a6.36,6.36,0,0,1,12.71,0v65.13a9.55,9.55,0,0,0,9.54,9.54h65.12a6.36,6.36,0,1,1,0,12.72Z"/><path d="M283.94,187.14h56l-63.57-63.58v56A7.59,7.59,0,0,0,283.94,187.14Z"/><path d="M283.94,205.05a25.53,25.53,0,0,1-25.5-25.5V117.42H15.9A15.89,15.89,0,0,0,0,133.31v423.2A15.89,15.89,0,0,0,15.9,572.4H330.62a15.88,15.88,0,0,0,15.89-15.89V205.05ZM41.32,175.92H228.89a6.72,6.72,0,1,1,0,13.44H41.32a6.72,6.72,0,1,1,0-13.44ZM305.19,492.74H41.32a6.72,6.72,0,1,1,0-13.44H305.19a6.72,6.72,0,1,1,0,13.44Zm0-50.57H41.32a6.72,6.72,0,1,1,0-13.44H305.19a6.72,6.72,0,1,1,0,13.44Zm0-50.56H41.32a6.72,6.72,0,1,1,0-13.44H305.19a6.72,6.72,0,1,1,0,13.44Zm0-50.56H41.32a6.72,6.72,0,1,1,0-13.44H305.19a6.72,6.72,0,1,1,0,13.44Zm0-50.56H41.32a6.72,6.72,0,1,1,0-13.44H305.19a6.72,6.72,0,1,1,0,13.44Zm0-50.57H41.32a6.72,6.72,0,0,1,0-13.44H305.19a6.72,6.72,0,1,1,0,13.44Z"/></g></svg>