<svg xmlns="http://www.w3.org/2000/svg" viewBox="0 0 281.89 283.01"><defs><style>.cls-1,.cls-2{stroke:#000a22;stroke-linecap:round;stroke-linejoin:round;}.cls-2{fill:none;}</style></defs><g id="OBJECTS"><path class="cls-1" d="M250.78,226.35c2.37-6.78-4.27-10.86-8.21-14.73-12.7-12.47-4.34-17.71-8.06-11.75,9.87-22.46,10.33-31.1,14.51-35.69,12.27-13.49,41,12.08,29.81-40.09-2.52-11.71-9-6.72-20.94-7-16.83-.45-15.78-13.27-23.5-30.36-8.63-19.13,18.15-22.57,11.27-37.08C243.42,44.87,239,41.89,228,32.77c-19.72-16.29-17,20.74-43.57,8.67-7.54-3.42-21.78-6.22-27-13.28-5-6.66.2-22.43-4.43-25.87C150,.13,118.92-.4,116,2.54c-6.85,7,5.55,25.3-8.91,31.78C75.54,48.47,75.44,49,72.11,48.43,64.1,47,56.81,30,48.48,33c-2.21.8-2.37,1.27-18.42,16.73-16.21,15.61,9.54,20.95,11.85,34,1.06,6-3.39,12.41-10.94,32-5.17,13.36-27.22,7.7-29.83,12.77-1.32,2.57-.31,22.23.41,28,1.37,11,11.29,6.59,20.14,9,13.83,3.83,11.47,14.87,17.56,24.63,5.16,8.27,7,4.65,20.58-9.15,5.92-6,9-4.57,4.88-17.35-20.95-65.33,49.14-132.56,117-87.85,50.9,33.51,41.12,94.79,13,121.2C152.92,236.21,122.1,213.77,115,215.2c-1.88.39-23.68,23.12-23.26,25.87,1.29,8.36,25.67,2,30.17,19.56,2.81,11-6.68,20.48,17.46,21.05,6.59.16,21.37,3.88,22.56-5.85,4.71-38.54,10.32-23.71,38.05-41.46,9.12-5.83,17.66,14.28,26.13,14.81C232.38,249.57,248.51,232.86,250.78,226.35Z"/><path class="cls-1" d="M119.11,195.85c3.35-1,7.34.64,10.76,1a59.59,59.59,0,0,0,45.85-15.34c14.89-13.95,20.44-36.3,15.73-56.15a408.87,408.87,0,0,0-30.13,32.84c-10.77-1.31-21.66-2.77-32.44-4.08q-5.31-17.7-10.63-35.4c11-10.8,22.61-20.63,33.33-31.68-20.08-3.55-42.82,2.81-56.75,17.7s-18,38.94-7.7,56.52c4.16,7.07-13.7,20.6-17.81,24.82q-12.76,13.11-25.4,26.37c-5.82,6.13-13.64,11.91-6.81,20.76A135.47,135.47,0,0,0,51.34,249.3c1.61,1.52,3.38,3,5.55,3.51,4.72,1,9.54-5.45,12.43-8.29,4.57-4.5,9-9.12,13.42-13.76,8.64-9.07,17.2-18.23,26.48-26.64,2.6-2.36,6.3-7.06,9.68-8.21Z"/><path class="cls-2" d="M87.59,162.33a43.72,43.72,0,0,0,15,14.72"/></g></svg>